<svg width="120" height="120" viewBox="0 0 120 120" fill="none" xmlns="http://www.w3.org/2000/svg">
<path d="M95.7806 75H46.7194C46.3258 77.3019 45.2277 79.425 43.5763 81.0763C41.925 82.7277 39.8019 83.8258 37.5 84.2194V95.7806C39.8019 96.1742 41.925 97.2723 43.5763 98.9237C45.2277 100.575 46.3258 102.698 46.7194 105H95.7806C96.1742 102.698 97.2723 100.575 98.9237 98.9237C100.575 97.2723 102.698 96.1742 105 95.7806V84.2194C102.698 83.8258 100.575 82.7277 98.9237 81.0763C97.2723 79.425 96.1742 77.3019 95.7806 75ZM71.25 101.25C69.025 101.25 66.8499 100.59 64.9998 99.354C63.1498 98.1179 61.7078 96.3609 60.8564 94.3052C60.0049 92.2495 59.7821 89.9875 60.2162 87.8052C60.6502 85.6229 61.7217 83.6184 63.295 82.045C64.8684 80.4717 66.8729 79.4002 69.0552 78.9662C71.2375 78.5321 73.4995 78.7549 75.5552 79.6064C77.6109 80.4578 79.3679 81.8998 80.604 83.7498C81.8402 85.5999 82.5 87.775 82.5 90C82.497 92.9828 81.3108 95.8425 79.2017 97.9517C77.0925 100.061 74.2328 101.247 71.25 101.25Z" fill="#7445FF" fill-opacity="0.4"/>
<path d="M103.125 37.5C103.125 36.0082 102.532 34.5774 101.477 33.5225C100.423 32.4676 98.9918 31.875 97.5 31.875H45C43.5082 31.875 42.0774 32.4676 41.0225 33.5225C39.9676 34.5774 39.375 36.0082 39.375 37.5V41.25H103.125V37.5Z" fill="#7445FF" fill-opacity="0.4"/>
<path d="M112.5 50.625C112.5 49.1332 111.907 47.7024 110.852 46.6475C109.798 45.5926 108.367 45 106.875 45H35.625C34.1332 45 32.7024 45.5926 31.6475 46.6475C30.5926 47.7024 30 49.1332 30 50.625V58.125H112.5V50.625Z" fill="#7445FF" fill-opacity="0.4"/>
<path d="M112.5 61.875H30C28.5082 61.875 27.0774 62.4676 26.0225 63.5225C24.9676 64.5774 24.375 66.0082 24.375 67.5V112.5C24.375 113.992 24.9676 115.423 26.0225 116.477C27.0774 117.532 28.5082 118.125 30 118.125H112.5C113.992 118.125 115.423 117.532 116.477 116.477C117.532 115.423 118.125 113.992 118.125 112.5V67.5C118.125 66.0082 117.532 64.5774 116.477 63.5225C115.423 62.4676 113.992 61.875 112.5 61.875ZM108.75 97.5C108.75 97.9973 108.552 98.4742 108.201 98.8258C107.849 99.1775 107.372 99.375 106.875 99.375C104.886 99.375 102.978 100.165 101.572 101.572C100.165 102.978 99.375 104.886 99.375 106.875C99.375 107.372 99.1775 107.849 98.8258 108.201C98.4742 108.552 97.9973 108.75 97.5 108.75H45C44.5027 108.75 44.0258 108.552 43.6742 108.201C43.3225 107.849 43.125 107.372 43.125 106.875C43.125 104.886 42.3348 102.978 40.9283 101.572C39.5218 100.165 37.6141 99.375 35.625 99.375C35.1277 99.375 34.6508 99.1775 34.2992 98.8258C33.9475 98.4742 33.75 97.9973 33.75 97.5V82.5C33.75 82.0027 33.9475 81.5258 34.2992 81.1742C34.6508 80.8225 35.1277 80.625 35.625 80.625C37.6141 80.625 39.5218 79.8348 40.9283 78.4283C42.3348 77.0218 43.125 75.1141 43.125 73.125C43.125 72.6277 43.3225 72.1508 43.6742 71.7992C44.0258 71.4475 44.5027 71.25 45 71.25H97.5C97.9973 71.25 98.4742 71.4475 98.8258 71.7992C99.1775 72.1508 99.375 72.6277 99.375 73.125C99.375 75.1141 100.165 77.0218 101.572 78.4283C102.978 79.8348 104.886 80.625 106.875 80.625C107.372 80.625 107.849 80.8225 108.201 81.1742C108.552 81.5258 108.75 82.0027 108.75 82.5V97.5Z" fill="#7445FF" fill-opacity="0.4"/>
<path d="M71.25 97.5C75.3921 97.5 78.75 94.1421 78.75 90C78.75 85.8579 75.3921 82.5 71.25 82.5C67.1079 82.5 63.75 85.8579 63.75 90C63.75 94.1421 67.1079 97.5 71.25 97.5Z" fill="#7445FF" fill-opacity="0.4"/>
<path d="M77.1019 16.3257C76.9144 16.1382 62.9963 2.2294 63.1856 2.41315C62.8274 2.08239 62.3623 1.8914 61.875 1.87503H21.0675C20.0223 1.87181 18.9972 2.16131 18.1081 2.71074C17.219 3.26017 16.5015 4.04757 16.0369 4.98378L2.07188 32.9213C1.98421 33.1918 1.91837 33.469 1.875 33.75V90C1.875 91.4919 2.46763 92.9226 3.52252 93.9775C4.57742 95.0324 6.00816 95.625 7.5 95.625H73.125C74.6169 95.625 76.0476 95.0324 77.1025 93.9775C78.1574 92.9226 78.75 91.4919 78.75 90V20.3025C78.7517 19.5636 78.6069 18.8317 78.324 18.1491C78.0411 17.4665 77.6257 16.8467 77.1019 16.3257ZM60 33.75V91.875H48.75V34.1925L62.3888 6.91503L70.0613 14.5875L60.2231 32.8613C60.0769 33.1347 60.0003 33.4399 60 33.75ZM19.3913 6.6619C19.5456 6.34953 19.7846 6.08676 20.0809 5.90346C20.3772 5.72016 20.7191 5.62369 21.0675 5.62503H58.8413L45.7163 31.875H6.78375L19.3913 6.6619ZM5.625 90V35.625H45V91.875H7.5C7.00272 91.875 6.52581 91.6775 6.17418 91.3259C5.82254 90.9742 5.625 90.4973 5.625 90ZM75 90C75 90.4973 74.8025 90.9742 74.4508 91.3259C74.0992 91.6775 73.6223 91.875 73.125 91.875H63.75V34.2225L72.8306 17.3569L74.4506 18.9769C74.8023 19.3284 74.9999 19.8053 75 20.3025V90Z" fill="#2D2D2D"/>
<path d="M31.875 46.875H18.75C18.2527 46.875 17.7758 47.0725 17.4242 47.4242C17.0725 47.7758 16.875 48.2527 16.875 48.75C16.875 49.2473 17.0725 49.7242 17.4242 50.0758C17.7758 50.4275 18.2527 50.625 18.75 50.625H31.875C32.3723 50.625 32.8492 50.4275 33.2008 50.0758C33.5525 49.7242 33.75 49.2473 33.75 48.75C33.75 48.2527 33.5525 47.7758 33.2008 47.4242C32.8492 47.0725 32.3723 46.875 31.875 46.875Z" fill="#2D2D2D"/>
<path d="M31.875 61.875H18.75C18.2527 61.875 17.7758 62.0725 17.4242 62.4242C17.0725 62.7758 16.875 63.2527 16.875 63.75C16.875 64.2473 17.0725 64.7242 17.4242 65.0758C17.7758 65.4275 18.2527 65.625 18.75 65.625H31.875C32.3723 65.625 32.8492 65.4275 33.2008 65.0758C33.5525 64.7242 33.75 64.2473 33.75 63.75C33.75 63.2527 33.5525 62.7758 33.2008 62.4242C32.8492 62.0725 32.3723 61.875 31.875 61.875Z" fill="#2D2D2D"/>
<path d="M19.9086 28.125H39.1723C40.1268 28.1275 41.0661 27.8859 41.901 27.4232C42.7358 26.9605 43.4385 26.292 43.9423 25.4813L50.4223 15.1125C50.7768 14.5454 50.9731 13.8938 50.991 13.2253C51.0089 12.5568 50.8477 11.8957 50.5241 11.3104C50.2004 10.7252 49.7262 10.2371 49.1505 9.89681C48.5748 9.55651 47.9186 9.37636 47.2498 9.37503H26.6923C25.6472 9.37181 24.622 9.66131 23.7329 10.2107C22.8438 10.7602 22.1263 11.5476 21.6617 12.4838L16.5542 22.6988C16.2685 23.2705 16.1337 23.9057 16.1625 24.5442C16.1913 25.1827 16.3829 25.8032 16.719 26.3468C17.055 26.8905 17.5244 27.3392 18.0827 27.6504C18.6409 27.9616 19.2694 28.125 19.9086 28.125ZM25.0161 14.1619C25.1705 13.8495 25.4094 13.5868 25.7057 13.4035C26.0021 13.2202 26.3439 13.1237 26.6923 13.125H47.2498L40.7623 23.4919C40.594 23.7619 40.3597 23.9847 40.0816 24.1392C39.8034 24.2937 39.4905 24.3748 39.1723 24.375H19.9086L25.0161 14.1619Z" fill="#2D2D2D"/>
</svg>
