<svg width="160" height="160" viewBox="0 0 160 160" fill="none" xmlns="http://www.w3.org/2000/svg">
<path d="M142.385 122.99L23.6075 130.587C17.7778 130.96 12.7497 126.537 12.3768 120.707L7.73289 48.1092C7.35993 42.2795 11.7835 37.2514 17.6131 36.8785L136.391 29.2806C142.221 28.9077 147.249 33.3312 147.622 39.1609L152.265 111.759C152.638 117.588 148.215 122.617 142.385 122.99Z" fill="#7445FF"/>
<path opacity="0.1" d="M148.305 112.799L32.1407 138.716C26.4393 139.988 20.7863 136.397 19.5143 130.696L3.67397 59.695C2.40193 53.9936 5.99271 48.3406 11.694 47.0686L127.859 21.1521C133.56 19.8801 139.213 23.4708 140.485 29.1722L156.325 100.173C157.597 105.874 154.007 111.527 148.305 112.799Z" fill="#7445FF"/>
<path opacity="0.1" d="M150.613 107.497L36.7612 142.193C31.1734 143.896 25.2632 140.746 23.5602 135.158L2.35414 65.5716C0.65123 59.9837 3.80069 54.0735 9.38844 52.3706L123.24 17.6752C128.828 15.9723 134.738 19.1217 136.441 24.7096L157.647 94.2964C159.35 99.8842 156.2 105.794 150.613 107.497Z" fill="#7445FF"/>
<path d="M108.012 64.523L108.502 72.1823L9.87635 81.5847L8.99219 67.7633L108.012 64.523Z" fill="#D5DEFF"/>
<path d="M148.882 58.8148L149.766 72.6362L108.994 72.1507L108.504 64.4914L148.882 58.8148Z" fill="#D5DEFF"/>
<path d="M118.782 124.479L104.96 125.364L104.941 68.4653L111.551 68.0425L118.782 124.479Z" fill="#D5DEFF"/>
<path d="M111.542 68.6379L105.029 69.0546L98.9688 31.6745L112.79 30.7904L111.542 68.6379Z" fill="#D5DEFF"/>
<path d="M28.3645 100.483L33.9562 100.125L34.4237 107.433C33.5364 107.787 32.6964 108.049 31.9038 108.219C31.1112 108.389 30.297 108.501 29.4616 108.554C27.3341 108.69 25.6696 108.169 24.4681 106.991C23.2665 105.813 22.5909 104.054 22.4412 101.714C22.2957 99.4387 22.833 97.6231 24.0531 96.2673C25.2733 94.9115 27.037 94.1597 29.3444 94.0121C30.7905 93.9196 32.2037 94.1197 33.5841 94.6122L32.7441 97.0666C31.6828 96.6183 30.5961 96.4296 29.4843 96.5007C28.1924 96.5833 27.1853 97.0834 26.4632 98.0009C25.741 98.9183 25.4267 100.11 25.5205 101.575C25.6183 103.105 26.0064 104.253 26.6847 105.02C27.363 105.786 28.2999 106.131 29.4954 106.055C30.1187 106.015 30.7478 105.91 31.3823 105.74L31.1942 102.8L28.5236 102.971L28.3645 100.483Z" fill="white"/>
<path d="M37.8196 107.826L36.918 93.7309L39.9066 93.5397L40.8082 107.635L37.8196 107.826Z" fill="white"/>
<path d="M47.2952 107.22L44.3547 107.408L43.4531 93.3128L51.5323 92.796L51.6889 95.2448L46.5503 95.5735L46.7828 99.2081L51.5647 98.9023L51.7208 101.341L46.9388 101.647L47.2952 107.22Z" fill="white"/>
<path d="M60.628 106.367L57.6393 106.558L56.8968 94.9504L53.0693 95.1952L52.9102 92.7078L63.5538 92.027L63.7129 94.5144L59.8855 94.7592L60.628 106.367Z" fill="white"/>
<path d="M26.6251 113.995C25.8505 114.045 25.2557 114.342 24.8404 114.886C24.4251 115.43 24.2461 116.151 24.3035 117.048C24.3625 117.97 24.6242 118.669 25.0886 119.144C25.553 119.619 26.1853 119.831 26.9856 119.78C27.4772 119.749 28.0323 119.625 28.651 119.407L28.6969 120.126C28.2201 120.34 27.6234 120.47 26.9068 120.516C25.8688 120.583 25.0476 120.319 24.4433 119.725C23.839 119.131 23.4997 118.254 23.4255 117.094C23.379 116.368 23.4741 115.723 23.7108 115.159C23.9473 114.596 24.3125 114.149 24.8061 113.821C25.2997 113.493 25.8937 113.306 26.5879 113.262C27.3269 113.214 27.9815 113.308 28.5516 113.543L28.2495 114.269C27.7001 114.052 27.1586 113.961 26.6251 113.995Z" fill="white"/>
<path d="M34.6723 119.922L33.6516 117.737L30.8268 117.918L30.1025 120.215L29.2734 120.268L31.6071 113.013L32.2964 112.969L35.5208 119.868L34.6723 119.922ZM33.3489 117.016L32.3898 114.885C32.2661 114.615 32.135 114.283 31.9969 113.888C31.9459 114.201 31.8663 114.547 31.7582 114.925L31.0688 117.162L33.3489 117.016Z" fill="white"/>
<path d="M37.1258 116.823L37.3133 119.754L36.4938 119.806L36.043 112.759L37.976 112.635C38.8404 112.58 39.4897 112.704 39.9239 113.009C40.358 113.314 40.5963 113.798 40.6389 114.464C40.6985 115.396 40.2664 116.056 39.3426 116.444L41.4589 119.489L40.4901 119.551L38.5961 116.729L37.1258 116.823ZM37.0808 116.119L38.204 116.047C38.7825 116.01 39.1993 115.868 39.4546 115.621C39.7098 115.374 39.8227 115.021 39.7933 114.561C39.7635 114.095 39.6046 113.768 39.3167 113.58C39.0287 113.392 38.5811 113.318 37.9737 113.356L36.9084 113.425L37.0808 116.119Z" fill="white"/>
<path d="M47.9872 115.465C48.0616 116.628 47.8028 117.538 47.2107 118.193C46.6186 118.849 45.7296 119.215 44.5438 119.291L42.5915 119.416L42.1406 112.368L44.3002 112.23C45.396 112.16 46.2671 112.409 46.9133 112.978C47.5595 113.546 47.9175 114.375 47.9872 115.465ZM47.1213 115.549C47.0625 114.63 46.7877 113.952 46.2967 113.516C45.8057 113.079 45.1055 112.89 44.196 112.948L43.0053 113.024L43.3655 118.655L44.3634 118.591C45.3403 118.529 46.0593 118.241 46.5202 117.729C46.9812 117.217 47.1816 116.491 47.1213 115.549Z" fill="white"/>
<path d="M48.3929 49.3298L21.4181 51.0553C20.1977 51.1333 19.1452 50.2073 19.0671 48.9869L19.0593 48.865C18.9812 47.6445 19.9072 46.592 21.1277 46.5139L48.1024 44.7884C49.3229 44.7104 50.3754 45.6364 50.4535 46.8568L50.4613 46.9786C50.5394 48.1991 49.6133 49.2517 48.3929 49.3298Z" fill="white"/>
<path opacity="0.1" d="M91.2989 98.7594L96.126 85.8235C97.7435 80.6769 99.3718 76.7799 100.992 74.1701C100.634 74.4999 100.283 74.8559 99.9373 75.238C94.9305 80.7805 87.5439 82.3493 82.2289 82.6892C81.5752 82.731 80.9111 82.7565 80.2549 82.765C77.4419 82.8017 75.1137 80.6327 74.9544 77.8271L73.9773 60.6136C73.8271 57.972 75.6753 55.6293 78.2765 55.1641C79.0289 55.0295 79.8008 54.9364 80.5709 54.8871C82.6968 54.7511 84.8808 54.9403 87.0619 55.4498C89.8437 56.0995 92.4575 57.3317 94.8307 59.1122C97.5823 61.1767 100.268 62.5176 102.822 63.1033C103.403 62.3965 104.162 61.8604 105.034 61.5525C105.436 61.4104 105.841 61.3255 106.238 61.3002C107.01 61.2508 107.752 61.4261 108.424 61.8111C108.701 61.7526 109.035 61.6994 109.401 61.6761C110.223 61.6235 110.986 61.7376 111.65 62.0087C115.997 60.0934 124.112 55.2462 124.194 55.1971L124.217 55.1832L124.241 55.1702C127.35 53.4602 130.811 52.4726 134.526 52.2349C136.784 52.0904 138.652 52.2615 139.821 52.4304C141.257 52.6383 142.375 53.737 142.603 55.1646C143.377 60.0123 142.813 73.183 142.535 78.6206C142.45 80.2709 141.401 81.7167 139.861 82.3043C138.645 82.768 137.337 83.0473 135.971 83.1347H135.971C133.154 83.3149 130.282 82.6763 127.583 81.6424C128.467 82.6211 129.371 83.6719 130.292 84.8004L131.212 85.9279L116.195 98.6757L111.312 80.677L111.842 109.434L91.2989 98.7594Z" fill="black"/>
<path d="M139.333 80.9178C128.845 84.9172 115.084 71.8974 115.084 71.8974C115.084 71.8974 114.546 71.4933 113.614 71.0297C111.61 70.0304 107.783 68.7549 103.59 70.6452C102.032 71.3481 100.422 72.4886 98.8368 74.2432C93.4666 80.1881 85.0151 81.2196 80.2362 81.2812C78.2257 81.3076 76.5504 79.7499 76.4364 77.7431L75.4593 60.5295C75.3516 58.6368 76.6724 56.9586 78.5381 56.6248C81.601 56.077 84.4315 56.3593 86.7248 56.8948C89.3426 57.5062 91.7903 58.6859 93.9405 60.2991C97.4885 62.961 100.547 64.1787 102.993 64.6563C107.158 65.471 109.546 64.1395 109.546 64.1395C109.886 64.282 110.842 63.9791 112.121 63.4227C116.575 61.485 124.956 56.4703 124.956 56.4703C131.001 53.1457 137.09 53.5349 139.609 53.899C140.392 54.0122 141.013 54.6175 141.138 55.3982C141.903 60.1925 141.292 73.8686 141.053 78.5447C140.999 79.606 140.326 80.5388 139.333 80.9178Z" fill="#D5DEFF"/>
<path d="M110.316 106.967L93.1523 98.048L97.5342 86.3056C100.484 76.907 102.912 73.4581 104.503 72.2602C105.814 71.2731 106.557 71.814 106.557 71.814L109.673 72.0647L109.721 74.6805L110.316 106.967Z" fill="#D5DEFF"/>
<path d="M129.144 85.7385L117.017 96.0327L111.091 74.1903L110.043 70.3254C110.043 70.3254 111.252 70.6442 113.346 71.7722C116.743 73.602 122.47 77.5605 129.144 85.7385Z" fill="#D5DEFF"/>
<g opacity="0.3">
<path d="M100.855 91.303C100.855 91.303 102.017 77.365 107.214 71.0452C107.214 71.0452 101.494 74.7069 100.855 91.303Z" fill="black"/>
<path d="M105.985 89.1785C105.985 89.1785 105.746 79.5805 107.604 73.3693C107.604 73.3693 104.907 80.47 105.985 89.1785Z" fill="black"/>
<path d="M122.234 82.8863C122.234 82.8863 116.446 75.2263 111.125 71.5222C111.125 71.5222 117.656 75.3998 122.234 82.8863Z" fill="black"/>
<path d="M116.03 80.3617C116.03 80.3617 115.186 77.2537 110.934 72.3604C110.934 72.3604 114.352 73.8709 116.03 80.3617Z" fill="black"/>
</g>
<path opacity="0.1" d="M109.67 72.0647L109.718 74.6805C109.106 74.8031 108.498 74.801 107.909 74.6749C106.666 74.4092 105.52 73.5972 104.5 72.2602C105.811 71.2731 106.554 71.814 106.554 71.814L109.67 72.0647Z" fill="black"/>
<path opacity="0.1" d="M110.043 70.3255C110.043 70.3255 111.252 70.6443 113.346 71.7723C112.881 72.8037 112.092 73.6587 111.091 74.1903L110.043 70.3255Z" fill="black"/>
<path opacity="0.1" d="M113.619 71.0297C111.614 70.0304 107.788 68.7549 103.595 70.6452C103.097 69.5525 102.556 67.9542 102.618 66.2636C102.639 65.7026 102.768 65.1582 102.997 64.6563C107.162 65.471 109.55 64.1395 109.55 64.1395C109.89 64.282 110.846 63.9791 112.125 63.4227C112.331 63.6036 112.515 63.8148 112.673 64.0564C112.828 64.2927 112.954 64.5634 113.048 64.8626C113.308 65.6826 113.902 67.8106 113.808 69.8475C113.79 70.2545 113.725 70.6507 113.619 71.0297Z" fill="black"/>
<path d="M108.14 63.423C108.14 63.423 110.965 62.3831 112.244 64.3349C112.381 64.5452 112.484 64.7761 112.56 65.0157C112.785 65.7266 113.387 67.84 113.296 69.8243C113.205 71.8115 111.882 73.5518 109.969 74.0969C108.523 74.5087 106.62 74.2967 104.789 71.8005C104.789 71.8005 103.016 69.15 103.122 66.2822C103.177 64.787 104.117 63.4498 105.528 62.9517C106.323 62.671 107.257 62.6581 108.14 63.423Z" fill="#D5DEFF"/>
<g opacity="0.3">
<path d="M89.1055 65.692C89.1055 65.692 97.2042 64.5138 102.905 66.7721C102.905 66.7721 96.9064 65.1776 89.1055 65.692Z" fill="black"/>
<path d="M113.234 68.7574C113.234 68.7574 121.974 70.9024 128.454 70.7293C128.454 70.7293 121.36 72.0704 113.234 68.7574Z" fill="black"/>
<path d="M105.359 72.5456C105.359 72.5456 109.227 69.5272 108.142 63.4231C108.142 63.4231 110.16 69.0512 105.359 72.5456Z" fill="black"/>
<path d="M106.875 73.702C106.875 73.702 111.542 72.7772 113.062 67.1263C113.062 67.1263 110.903 72.1209 106.875 73.702Z" fill="black"/>
<path d="M88.2773 70.7641C88.2773 70.7641 96.9255 67.9885 103.308 69.0715C103.308 69.0715 96.1238 69.0643 88.2773 70.7641Z" fill="black"/>
<path d="M113.109 66.9275C113.109 66.9275 121.122 63.9641 130.539 65.6141C130.539 65.6141 121.466 62.8424 113.109 66.9275Z" fill="black"/>
</g>
</svg>
