<svg width="156" height="46" viewBox="0 0 156 46" fill="none" xmlns="http://www.w3.org/2000/svg">
<path d="M148.765 45.0434H6.35617C3.22044 45.0434 0.665405 42.518 0.665405 39.4187V5.64763C0.665405 2.54831 3.22044 0.0229492 6.35617 0.0229492H148.765C151.901 0.0229492 154.455 2.54831 154.455 5.64763V39.4187C154.455 42.518 151.877 45.0434 148.765 45.0434Z" fill="black"/>
<path d="M148.765 0.897799C151.413 0.897799 153.55 3.00992 153.55 5.62712V39.3982C153.55 42.0154 151.413 44.1276 148.765 44.1276H6.35617C3.70822 44.1276 1.57129 42.0154 1.57129 39.3982V5.62712C1.57129 3.00992 3.70822 0.897799 6.35617 0.897799H148.765ZM148.765 0.00244141H6.35617C3.22044 0.00244141 0.665405 2.52781 0.665405 5.62712V39.3982C0.665405 42.4976 3.22044 45.0229 6.35617 45.0229H148.765C151.9 45.0229 154.455 42.4976 154.455 39.3982V5.62712C154.455 2.52781 151.878 0.00244141 148.765 0.00244141Z" fill="#A6A6A6"/>
<path d="M54.6754 11.5478C54.6754 12.4891 54.3967 13.2467 53.8392 13.7977C53.1888 14.4635 52.3526 14.8078 51.3306 14.8078C50.3551 14.8078 49.4956 14.4635 48.822 13.7977C48.1251 13.1089 47.7768 12.2825 47.7768 11.2723C47.7768 10.2622 48.1251 9.43565 48.822 8.7699C49.5188 8.10414 50.3551 7.75977 51.3306 7.75977C51.8184 7.75977 52.283 7.85159 52.7243 8.03525C53.1656 8.21892 53.5372 8.47148 53.7928 8.7929L53.1888 9.38981C52.7243 8.86175 52.1203 8.58626 51.3074 8.58626C50.5873 8.58626 49.9601 8.83875 49.4492 9.34388C48.9149 9.84893 48.6595 10.4918 48.6595 11.2953C48.6595 12.0988 48.9149 12.7416 49.4492 13.2467C49.9834 13.7518 50.6105 14.0043 51.3074 14.0043C52.0739 14.0043 52.7011 13.7518 53.212 13.2467C53.5372 12.9253 53.7463 12.4661 53.7928 11.8692H51.3074V11.0657H54.6057C54.6754 11.2034 54.6754 11.3642 54.6754 11.5478Z" fill="white" stroke="white" stroke-width="0.167242" stroke-miterlimit="10"/>
<path d="M59.9271 8.72346H56.8146V10.8585H59.6251V11.6621H56.8146V13.7972H59.9271V14.6237H55.9319V7.87402H59.9271C59.9271 7.89698 59.9271 8.72346 59.9271 8.72346Z" fill="white" stroke="white" stroke-width="0.167242" stroke-miterlimit="10"/>
<path d="M63.6359 14.6471H62.7532V8.72396H60.8486V7.89746H65.5405V8.72396H63.6359V14.6471Z" fill="white" stroke="white" stroke-width="0.167242" stroke-miterlimit="10"/>
<path d="M68.9349 14.6471V7.89746H69.8175V14.6471H68.9349Z" fill="white" stroke="white" stroke-width="0.167242" stroke-miterlimit="10"/>
<path d="M73.7183 14.6471H72.8357V8.72396H70.931V7.89746H75.623V8.72396H73.7183V14.6471Z" fill="white" stroke="white" stroke-width="0.167242" stroke-miterlimit="10"/>
<path d="M84.5221 13.7748C83.8488 14.4634 83.0123 14.8079 82.0134 14.8079C81.0144 14.8079 80.1785 14.4634 79.505 13.7748C78.8314 13.086 78.5062 12.2595 78.5062 11.2724C78.5062 10.2851 78.8314 9.43572 79.505 8.76996C80.1785 8.0812 81.0144 7.73682 82.0134 7.73682C83.0123 7.73682 83.8488 8.0812 84.5221 8.76996C85.1961 9.45864 85.5444 10.2851 85.5444 11.2724C85.521 12.2595 85.1961 13.086 84.5221 13.7748ZM80.1554 13.2008C80.6661 13.7058 81.2702 13.9584 82.0134 13.9584C82.7332 13.9584 83.3606 13.7058 83.8714 13.2008C84.3829 12.6957 84.6379 12.0529 84.6379 11.2494C84.6379 10.4458 84.3829 9.80306 83.8714 9.29793C83.3606 8.79288 82.7566 8.54032 82.0134 8.54032C81.2702 8.54032 80.6661 8.79288 80.1554 9.29793C79.6443 9.80306 79.3888 10.4458 79.3888 11.2494C79.3888 12.0529 79.6443 12.6957 80.1554 13.2008Z" fill="white" stroke="white" stroke-width="0.167242" stroke-miterlimit="10"/>
<path d="M86.7495 14.6471V7.89746H87.8185L91.1395 13.1549H91.1862L91.1395 11.8462V7.89746H92.0227V14.6471H91.1162L87.6327 9.13723H87.586L87.6327 10.4458V14.6471H86.7495Z" fill="white" stroke="white" stroke-width="0.167242" stroke-miterlimit="10"/>
<path d="M78.2759 24.4966C75.6047 24.4966 73.4213 26.5169 73.4213 29.2948C73.4213 32.0498 75.6047 34.093 78.2759 34.093C80.9472 34.093 83.1535 32.0498 83.1535 29.2948C83.1535 26.5169 80.9706 24.4966 78.2759 24.4966ZM78.2759 32.1875C76.8126 32.1875 75.5351 30.9937 75.5351 29.2948C75.5351 27.5729 76.7893 26.4021 78.2759 26.4021C79.7625 26.4021 81.0164 27.5729 81.0164 29.2948C81.0164 30.9937 79.7392 32.1875 78.2759 32.1875ZM67.6841 24.4966C65.0129 24.4966 62.8295 26.5169 62.8295 29.2948C62.8295 32.0498 65.0129 34.093 67.6841 34.093C70.3553 34.093 72.5387 32.0498 72.5387 29.2948C72.5387 26.5169 70.3553 24.4966 67.6841 24.4966ZM67.6841 32.1875C66.2208 32.1875 64.9433 30.9937 64.9433 29.2948C64.9433 27.5729 66.2208 26.4021 67.6841 26.4021C69.1474 26.4021 70.4249 27.5729 70.4249 29.2948C70.4018 30.9937 69.1474 32.1875 67.6841 32.1875ZM55.0483 25.9659V28.0091H59.9725C59.8331 29.1571 59.4383 29.9836 58.8576 30.5575C58.1375 31.2691 57.0227 32.0498 55.0483 32.0498C52.0287 32.0498 49.6594 29.6391 49.6594 26.6546C49.6594 23.6701 52.0287 21.2595 55.0483 21.2595C56.6742 21.2595 57.8821 21.9024 58.7647 22.7059L60.2048 21.2825C58.9737 20.1117 57.3478 19.2393 55.0483 19.2393C50.8905 19.2393 47.4064 22.5681 47.4064 26.6776C47.4064 30.7871 50.8905 34.116 55.0483 34.116C57.3014 34.116 58.9737 33.3813 60.2977 32.0268C61.6449 30.6952 62.0862 28.7897 62.0862 27.2745C62.0862 26.7924 62.0398 26.3562 61.9701 26.0119C61.9701 25.9659 55.0483 25.9659 55.0483 25.9659ZM106.66 27.55C106.265 26.471 105.034 24.4966 102.502 24.4966C100.017 24.4966 97.9266 26.4481 97.9266 29.2948C97.9266 31.9809 99.9704 34.093 102.735 34.093C104.964 34.093 106.242 32.7615 106.776 31.9809L105.127 30.9019C104.57 31.7053 103.826 32.2334 102.735 32.2334C101.666 32.2334 100.876 31.7513 100.389 30.7871L106.869 28.1469C106.892 28.0781 106.66 27.55 106.66 27.55ZM100.064 29.1341C100.017 27.2974 101.503 26.3333 102.595 26.3333C103.431 26.3333 104.151 26.7465 104.407 27.3434C104.384 27.3664 100.064 29.1341 100.064 29.1341ZM94.7905 33.7946H96.9276V19.7214H94.7905V33.7946ZM91.307 25.5527H91.237C90.7488 25.0017 89.8431 24.4966 88.6817 24.4966C86.2663 24.4966 84.0367 26.6088 84.0367 29.2948C84.0367 31.9809 86.2663 34.07 88.6817 34.07C89.8431 34.07 90.7488 33.565 91.237 32.991H91.307V33.6798C91.307 35.5164 90.308 36.5036 88.7283 36.5036C87.4277 36.5036 86.6145 35.5853 86.2896 34.8047L84.4316 35.5623C84.9657 36.825 86.3821 38.3862 88.7283 38.3862C91.237 38.3862 93.3274 36.9398 93.3274 33.4043V24.795H91.307V25.5527ZM88.8675 32.1875C87.4044 32.1875 86.173 30.9707 86.173 29.2948C86.173 27.5959 87.4044 26.3791 88.8675 26.3791C90.308 26.3791 91.4461 27.6189 91.4461 29.2948C91.4461 30.9707 90.308 32.1875 88.8675 32.1875ZM116.648 19.6984H111.561V33.7716H113.675V28.4453H116.648C119.017 28.4453 121.316 26.7465 121.316 24.0834C121.316 21.3973 118.994 19.6984 116.648 19.6984ZM116.695 26.4939H113.675V21.6728H116.695C118.274 21.6728 119.179 22.9814 119.179 24.0834C119.179 25.1624 118.274 26.4939 116.695 26.4939ZM129.842 24.4736C128.308 24.4736 126.705 25.1394 126.055 26.6317L127.937 27.4122C128.332 26.6317 129.098 26.3791 129.887 26.3791C130.98 26.3791 132.118 27.045 132.118 28.1928V28.3305C131.723 28.101 130.91 27.7796 129.887 27.7796C127.867 27.7796 125.776 28.8815 125.776 30.9478C125.776 32.8303 127.449 34.0471 129.307 34.0471C130.747 34.0471 131.537 33.4043 132.024 32.6696H132.094V33.7486H134.138V28.3536C134.162 25.8741 132.28 24.4736 129.842 24.4736ZM129.586 32.1875C128.889 32.1875 127.914 31.8431 127.914 30.9937C127.914 29.9146 129.121 29.4784 130.166 29.4784C131.095 29.4784 131.537 29.6851 132.118 29.9606C131.932 31.2691 130.817 32.1875 129.586 32.1875ZM141.641 24.7721L139.202 30.8789H139.132L136.6 24.7721H134.301L138.087 33.2895L135.927 38.0417H138.157L144.01 24.7721H141.641ZM122.478 33.7946H124.615V19.7214H122.478V33.7946Z" fill="white"/>
<path d="M12.5407 8.49469C12.2155 8.83903 12.0065 9.39001 12.0065 10.0788V34.9881C12.0065 35.6768 12.1923 36.2278 12.5407 36.5722L12.6337 36.641L26.7561 22.6826V22.3612L12.6337 8.40283L12.5407 8.49469Z" fill="url(#paint0_linear_1906_1249)"/>
<path d="M31.4517 27.3425L26.7597 22.6821V22.3607L31.4749 17.7002L31.5911 17.769L37.1657 20.9143C38.7452 21.8097 38.7452 23.279 37.1657 24.1743L31.5911 27.2966C31.5678 27.2736 31.4517 27.3425 31.4517 27.3425Z" fill="url(#paint1_linear_1906_1249)"/>
<path d="M31.5607 27.2738L26.7526 22.5215L12.5604 36.5488C13.0947 37.0998 13.9541 37.1686 14.9297 36.6177L31.5607 27.2738Z" fill="url(#paint2_linear_1906_1249)"/>
<path d="M31.5576 17.7692L14.9034 8.42533C13.9279 7.87436 13.0684 7.94323 12.5342 8.49418L26.7263 22.5215L31.5576 17.7692Z" fill="url(#paint3_linear_1906_1249)"/>
<defs>
<linearGradient id="paint0_linear_1906_1249" x1="25.4897" y1="35.2375" x2="2.09363" y2="11.287" gradientUnits="userSpaceOnUse">
<stop stop-color="#00A0FF"/>
<stop offset="0.0066" stop-color="#00A1FF"/>
<stop offset="0.2601" stop-color="#00BEFF"/>
<stop offset="0.5122" stop-color="#00D2FF"/>
<stop offset="0.7604" stop-color="#00DFFF"/>
<stop offset="1" stop-color="#00E3FF"/>
</linearGradient>
<linearGradient id="paint1_linear_1906_1249" x1="39.2055" y1="22.5229" x2="4.6641" y2="22.5229" gradientUnits="userSpaceOnUse">
<stop stop-color="#FFE000"/>
<stop offset="0.4087" stop-color="#FFBD00"/>
<stop offset="0.7754" stop-color="#FFA500"/>
<stop offset="1" stop-color="#FF9C00"/>
</linearGradient>
<linearGradient id="paint2_linear_1906_1249" x1="19.4295" y1="29.3337" x2="-12.2975" y2="-3.14521" gradientUnits="userSpaceOnUse">
<stop stop-color="#FF3A44"/>
<stop offset="1" stop-color="#C31162"/>
</linearGradient>
<linearGradient id="paint3_linear_1906_1249" x1="-0.54233" y1="35.4513" x2="13.6252" y2="20.9481" gradientUnits="userSpaceOnUse">
<stop stop-color="#32A071"/>
<stop offset="0.0685" stop-color="#2DA771"/>
<stop offset="0.4762" stop-color="#15CF74"/>
<stop offset="0.8009" stop-color="#06E775"/>
<stop offset="1" stop-color="#00F076"/>
</linearGradient>
</defs>
</svg>
