<svg width="40" height="40" viewBox="0 0 40 40" fill="none" xmlns="http://www.w3.org/2000/svg">
<path d="M33.75 35H6.25C5.25544 35 4.30161 34.6049 3.59835 33.9017C2.89509 33.1984 2.5 32.2446 2.5 31.25V8.75C2.5 7.75544 2.89509 6.80161 3.59835 6.09835C4.30161 5.39509 5.25544 5 6.25 5H33.75C34.7446 5 35.6984 5.39509 36.4016 6.09835C37.1049 6.80161 37.5 7.75544 37.5 8.75V31.25C37.5 32.2446 37.1049 33.1984 36.4016 33.9017C35.6984 34.6049 34.7446 35 33.75 35ZM6.25 7.5C5.91848 7.5 5.60054 7.6317 5.36612 7.86612C5.1317 8.10054 5 8.41848 5 8.75V31.25C5 31.5815 5.1317 31.8995 5.36612 32.1339C5.60054 32.3683 5.91848 32.5 6.25 32.5H33.75C34.0815 32.5 34.3995 32.3683 34.6339 32.1339C34.8683 31.8995 35 31.5815 35 31.25V8.75C35 8.41848 34.8683 8.10054 34.6339 7.86612C34.3995 7.6317 34.0815 7.5 33.75 7.5H6.25ZM35 10H5V12.5H35V10ZM35 15H5V17.5H35V15Z" fill="#2D2D2D"/>
<path d="M28.75 30H27.5C26.5054 30 25.5516 29.6049 24.8483 28.9017C24.1451 28.1984 23.75 27.2446 23.75 26.25C23.75 25.2554 24.1451 24.3016 24.8483 23.5983C25.5516 22.8951 26.5054 22.5 27.5 22.5H28.75C29.7446 22.5 30.6984 22.8951 31.4017 23.5983C32.1049 24.3016 32.5 25.2554 32.5 26.25C32.5 27.2446 32.1049 28.1984 31.4017 28.9017C30.6984 29.6049 29.7446 30 28.75 30ZM27.5 25C27.1685 25 26.8505 25.1317 26.6161 25.3661C26.3817 25.6005 26.25 25.9185 26.25 26.25C26.25 26.5815 26.3817 26.8995 26.6161 27.1339C26.8505 27.3683 27.1685 27.5 27.5 27.5H28.75C29.0815 27.5 29.3995 27.3683 29.6339 27.1339C29.8683 26.8995 30 26.5815 30 26.25C30 25.9185 29.8683 25.6005 29.6339 25.3661C29.3995 25.1317 29.0815 25 28.75 25H27.5Z" fill="#7445FF"/>
</svg>
