<svg width="30" height="30" viewBox="0 0 30 30" fill="none" xmlns="http://www.w3.org/2000/svg">
<path d="M3.76562 4.28921V0H8.06197V1.33331H5.09901V4.28921H3.76562ZM21.9563 0H26.2408V4.29191H24.9074V1.33331H21.9563V0ZM26.2408 17.189V21.4751H21.9665V20.1418H24.9074V17.189H26.2408ZM8.05352 21.4751H3.76562V17.189H5.09901V20.1418H8.05352V21.4751Z" fill="white"/>
<path fill-rule="evenodd" clip-rule="evenodd" d="M17.0308 22.4707C16.5102 22.9913 15.7918 23.3144 15.0012 23.3144C14.2107 23.3144 13.4923 22.9913 12.9716 22.4707C12.6657 22.1648 12.428 21.7907 12.2839 21.3738C9.47433 22.0134 7.34281 23.0656 5.9043 24.5298C4.50663 25.9525 3.75783 27.776 3.67188 30H26.3306C26.2446 27.776 25.4958 25.9525 24.0981 24.5298C22.6596 23.0656 20.528 22.0134 17.7185 21.3738C17.5744 21.7907 17.3367 22.1648 17.0308 22.4707Z" fill="white"/>
<path fill-rule="evenodd" clip-rule="evenodd" d="M9.54265 14.8442C9.31594 13.9882 9.12811 13.0396 8.97918 11.9985C8.50381 11.9501 8.19785 12.084 8.03134 12.3128C7.8665 12.5394 7.81522 12.8685 7.85826 13.2169C7.90421 13.5888 8.05813 13.971 8.29848 14.2759C8.59163 14.6476 9.02133 14.8975 9.54265 14.8442Z" fill="white"/>
<path fill-rule="evenodd" clip-rule="evenodd" d="M21.9762 12.3128C21.8097 12.084 21.5038 11.9501 21.0284 11.9985C20.8795 13.0396 20.6916 13.9881 20.4648 14.8442C20.9862 14.8975 21.4159 14.6476 21.7091 14.2759C21.9494 13.971 22.1034 13.5888 22.1493 13.2169C22.1924 12.8685 22.1411 12.5394 21.9762 12.3128Z" fill="white"/>
<path fill-rule="evenodd" clip-rule="evenodd" d="M7.95807 8.73072C7.86063 8.07887 7.83731 7.32266 8.10611 6.70646C8.47123 5.86949 9.37312 5.49398 10.2282 5.37778C10.3009 4.80753 10.5488 4.32939 10.9231 3.94205C11.501 3.27179 12.4092 2.94168 13.4617 2.79351C15.7061 2.4778 18.3563 3.2012 20.0137 4.70642C21.3493 5.91925 22.123 7.70731 21.6428 10.0844C21.5449 10.6143 21.1553 11.5609 21.113 11.8861C20.6816 15.0871 19.8251 17.259 18.5433 18.4016C17.3331 19.481 16.918 20.5868 14.9441 20.5868C13.1088 20.5868 12.5741 19.4082 11.4449 18.4018C10.163 17.2592 9.30647 15.0872 8.87512 11.8861C8.78612 11.2018 8.09939 9.85697 7.95807 8.73072ZM20.2628 11.2373C18.6158 9.87932 17.1856 10.1097 15.5521 10.1261C14.121 10.1405 12.7494 10.1543 11.5906 9.11398L11.1517 8.71985C10.9711 9.59793 10.8905 9.79157 10.2884 10.55C10.0583 10.8398 10.0448 10.872 9.70392 11.2359C9.75534 11.3728 9.8024 11.509 9.83804 11.642C10.3734 13.6399 10.36 16.0952 12.1103 17.6553C12.4232 17.9343 12.7053 18.2362 12.9928 18.5403C13.2015 18.7611 13.4192 18.9906 13.6605 19.1761C14.0579 19.4817 14.4439 19.5868 14.9441 19.5868C15.4784 19.5868 15.9137 19.5012 16.3404 19.1699C16.5726 18.9898 16.7824 18.7653 16.9834 18.5516C17.2743 18.2424 17.5604 17.9383 17.8778 17.6552C19.3399 16.3515 19.883 13.5212 20.1368 11.642C20.1463 11.5717 20.1984 11.4168 20.2628 11.2373Z" fill="white"/>
</svg>
