<svg width="40" height="40" viewBox="0 0 40 40" fill="none" xmlns="http://www.w3.org/2000/svg">
<path d="M19.9999 14.9999C15.1541 15.005 10.3474 14.1326 5.8124 12.4249C5.50077 12.3089 5.248 12.0738 5.10969 11.7714C4.97138 11.469 4.95887 11.124 5.0749 10.8124C5.19093 10.5008 5.42601 10.248 5.72841 10.1097C6.03081 9.97138 6.37577 9.95887 6.6874 10.0749C15.2718 13.2869 24.728 13.2869 33.3124 10.0749C33.4667 10.0174 33.6308 9.99095 33.7954 9.99692C33.9599 10.0029 34.1217 10.0412 34.2714 10.1097C34.4211 10.1782 34.5559 10.2755 34.668 10.396C34.7802 10.5166 34.8674 10.6581 34.9249 10.8124C34.9824 10.9667 35.0089 11.1308 35.0029 11.2954C34.9969 11.4599 34.9586 11.6217 34.8901 11.7714C34.8216 11.9211 34.7243 12.0559 34.6038 12.168C34.4832 12.2802 34.3417 12.3674 34.1874 12.4249C29.6524 14.1326 24.8457 15.005 19.9999 14.9999Z" fill="#7445FF"/>
<path d="M6.24994 30.0017C5.95501 30.0043 5.66864 29.9026 5.44148 29.7144C5.21432 29.5263 5.061 29.2639 5.00863 28.9736C4.95626 28.6834 5.00822 28.384 5.15532 28.1283C5.30242 27.8727 5.53518 27.6773 5.81244 27.5767C14.9607 24.1515 25.0392 24.1515 34.1874 27.5767C34.3417 27.6341 34.4832 27.7214 34.6038 27.8335C34.7244 27.9457 34.8217 28.0804 34.8902 28.2302C34.9586 28.3799 34.997 28.5417 35.0029 28.7062C35.0089 28.8707 34.9824 29.0349 34.9249 29.1892C34.8675 29.3435 34.7802 29.4849 34.6681 29.6055C34.5559 29.7261 34.4212 29.8234 34.2714 29.8919C34.1217 29.9604 33.9599 29.9987 33.7954 30.0046C33.6309 30.0106 33.4667 29.9841 33.3124 29.9267C24.7281 26.7146 15.2718 26.7146 6.68744 29.9267C6.54725 29.9776 6.39908 30.003 6.24994 30.0017Z" fill="#7445FF"/>
<path d="M36.25 21.25H3.75C3.41848 21.25 3.10054 21.1183 2.86612 20.8839C2.6317 20.6495 2.5 20.3315 2.5 20C2.5 19.6685 2.6317 19.3505 2.86612 19.1161C3.10054 18.8817 3.41848 18.75 3.75 18.75H36.25C36.5815 18.75 36.8995 18.8817 37.1339 19.1161C37.3683 19.3505 37.5 19.6685 37.5 20C37.5 20.3315 37.3683 20.6495 37.1339 20.8839C36.8995 21.1183 36.5815 21.25 36.25 21.25Z" fill="#7445FF"/>
<path d="M21.25 36.251C21.0028 36.25 20.7614 36.1756 20.5565 36.0374C20.3515 35.8992 20.1921 35.7034 20.0984 35.4746C20.0048 35.2458 19.9811 34.9944 20.0303 34.7521C20.0795 34.5098 20.1995 34.2876 20.375 34.1135C24.0851 30.3464 26.1909 25.288 26.25 20.001C26.1935 14.7134 24.0873 9.65414 20.375 5.8885C20.2434 5.77735 20.1362 5.64021 20.0602 5.48568C19.9841 5.33115 19.9408 5.16256 19.9329 4.99049C19.9251 4.81843 19.9529 4.6466 20.0146 4.48579C20.0763 4.32498 20.1706 4.17866 20.2915 4.056C20.4124 3.93335 20.5574 3.83701 20.7173 3.77303C20.8772 3.70905 21.0487 3.67881 21.2208 3.68421C21.393 3.68961 21.5622 3.73053 21.7178 3.8044C21.8734 3.87828 22.012 3.98351 22.125 4.1135C26.3132 8.34774 28.6892 14.0457 28.75 20.001C28.6866 25.9558 26.311 31.6528 22.125 35.8885C21.8922 36.1194 21.5779 36.2496 21.25 36.251Z" fill="#7445FF"/>
<path d="M18.75 36.251C18.4221 36.2496 18.1078 36.1194 17.875 35.8885C13.6868 31.6543 11.3108 25.9563 11.25 20.001C11.3108 14.0457 13.6868 8.34774 17.875 4.1135C17.988 3.98351 18.1267 3.87828 18.2823 3.8044C18.4378 3.73053 18.607 3.68961 18.7792 3.68421C18.9513 3.67881 19.1228 3.70905 19.2827 3.77303C19.4426 3.83701 19.5876 3.93335 19.7085 4.056C19.8294 4.17866 19.9237 4.32498 19.9854 4.48579C20.0471 4.6466 20.0749 4.81843 20.0671 4.99049C20.0592 5.16256 20.0159 5.33115 19.9398 5.48568C19.8638 5.64021 19.7566 5.77735 19.625 5.8885C15.9127 9.65414 13.8065 14.7134 13.75 20.001C13.8065 25.2886 15.9127 30.3479 19.625 34.1135C19.8005 34.2876 19.9205 34.5098 19.9697 34.7521C20.019 34.9944 19.9952 35.2458 19.9016 35.4746C19.8079 35.7034 19.6485 35.8992 19.4436 36.0374C19.2386 36.1756 18.9972 36.25 18.75 36.251Z" fill="#7445FF"/>
<path d="M20 37.5C16.5388 37.5 13.1554 36.4737 10.2775 34.5507C7.39967 32.6278 5.15665 29.8947 3.83212 26.697C2.50758 23.4993 2.16102 19.9806 2.83627 16.5859C3.51151 13.1913 5.17822 10.0731 7.62564 7.62564C10.0731 5.17822 13.1913 3.51151 16.5859 2.83627C19.9806 2.16102 23.4993 2.50758 26.697 3.83212C29.8947 5.15665 32.6278 7.39967 34.5507 10.2775C36.4737 13.1554 37.5 16.5388 37.5 20C37.5 24.6413 35.6563 29.0925 32.3744 32.3744C29.0925 35.6563 24.6413 37.5 20 37.5ZM20 5.00001C17.0333 5.00001 14.1332 5.87974 11.6665 7.52796C9.19972 9.17618 7.27713 11.5189 6.14181 14.2598C5.0065 17.0006 4.70945 20.0166 5.28823 22.9264C5.86701 25.8361 7.29562 28.5088 9.39341 30.6066C11.4912 32.7044 14.1639 34.133 17.0737 34.7118C19.9834 35.2906 22.9994 34.9935 25.7403 33.8582C28.4811 32.7229 30.8238 30.8003 32.472 28.3336C34.1203 25.8668 35 22.9667 35 20C35 16.0218 33.4197 12.2065 30.6066 9.39341C27.7936 6.58036 23.9783 5.00001 20 5.00001Z" fill="#2D2D2D"/>
</svg>
