<svg width="50" height="50" viewBox="0 0 50 50" fill="none" xmlns="http://www.w3.org/2000/svg">
<g clip-path="url(#clip0_466_13210)">
<path d="M42.7539 6.54992C38.5298 2.32586 32.9134 -0.000236253 26.94 1.79976e-08C25.9611 1.79976e-08 25.168 0.793399 25.168 1.77204C25.168 2.75067 25.9614 3.54407 26.94 3.54407C31.9669 3.54384 36.6931 5.50134 40.2478 9.05605C43.8027 12.6108 45.7602 17.3371 45.76 22.3643C45.76 23.3429 46.5531 24.1363 47.532 24.1363C48.5106 24.1363 49.304 23.3429 49.304 22.3645C49.3043 16.3904 46.9782 10.774 42.7539 6.54992Z" fill="#7445FF"/>
<path d="M35.4644 22.3651C35.4644 23.3438 36.2578 24.1372 37.2367 24.1369C38.2154 24.1369 39.0085 23.3435 39.0085 22.3649C39.008 15.7115 33.5941 10.2978 26.9402 10.2969C26.94 10.2969 26.9405 10.2969 26.9402 10.2969C25.9616 10.2969 25.1682 11.09 25.168 12.0687C25.168 13.0473 25.9611 13.8407 26.9398 13.8409C31.6399 13.8417 35.464 17.6655 35.4644 22.3651Z" fill="#7445FF"/>
<path d="M31.5427 31.3991C28.8417 31.2592 27.4656 33.268 26.8057 34.2329C26.2531 35.0408 26.4601 36.1434 27.2679 36.6961C28.0757 37.2487 29.1784 37.0417 29.731 36.2339C30.5107 35.0939 30.8639 34.9146 31.3431 34.9373C32.8767 35.1175 38.917 39.5439 39.5219 40.9279C39.6735 41.3355 39.6679 41.735 39.5051 42.2211C38.8709 44.1032 37.8212 45.4258 36.4688 46.0458C35.1839 46.6348 33.6087 46.5814 31.9144 45.892C25.5878 43.3133 20.0604 39.7147 15.4862 35.1958C15.4843 35.1939 15.4824 35.1922 15.4808 35.1903C10.9713 30.6206 7.37926 25.1003 4.80484 18.7834C4.11517 17.0877 4.06177 15.5122 4.6508 14.2276C5.27077 12.8752 6.59342 11.8254 8.4739 11.192C8.96157 11.0285 9.36039 11.0233 9.76418 11.1736C11.1532 11.7805 15.5793 17.8206 15.7579 19.337C15.7834 19.8341 15.6027 20.1871 14.4636 20.9654C13.6556 21.5173 13.4479 22.62 14.0001 23.428C14.552 24.2361 15.6544 24.4435 16.4627 23.8916C17.4281 23.2324 19.4364 21.8601 19.297 19.1499C19.1435 16.3188 13.6364 8.82172 11.0051 7.85419C9.83483 7.41803 8.60385 7.41047 7.345 7.83292C4.51258 8.78675 2.46694 10.4874 1.42923 12.7509C0.422718 14.9468 0.454615 17.4945 1.52256 20.12C4.27772 26.8802 8.13249 32.7952 12.9796 37.7014C12.9914 37.7135 13.0035 37.7253 13.0157 37.7369C17.9184 42.575 23.8266 46.4227 30.5778 49.1745C31.9298 49.7243 33.2611 49.9996 34.5344 49.9996C35.7332 49.9996 36.8811 49.7557 37.9457 49.2676C40.2094 48.2301 41.9099 46.1847 42.8644 43.3504C43.2859 42.0939 43.2791 40.8634 42.8462 39.6986C41.8754 37.0602 34.3782 31.5532 31.5427 31.3991Z" fill="#7445FF"/>
</g>
<defs>
<clipPath id="clip0_466_13210">
<rect width="50" height="50" fill="white"/>
</clipPath>
</defs>
</svg>
