<svg width="30" height="30" viewBox="0 0 30 30" fill="none" xmlns="http://www.w3.org/2000/svg">
<path d="M27.4994 23.75C27.4994 24.0725 27.4456 24.38 27.3694 24.6775L21.7344 18.0713L27.4994 13.41V23.75Z" fill="white"/>
<path d="M19.793 19.6437L15.7867 22.8837C15.5567 23.0687 15.2792 23.1624 15.0005 23.1624C14.7217 23.1624 14.4442 23.0699 14.2142 22.8837L10.2567 19.6824L4.13672 26.8437C4.73922 27.2562 5.46672 27.4999 6.25047 27.4999H23.7505C24.5542 27.4999 25.293 27.2412 25.9042 26.8099L19.793 19.6437Z" fill="white"/>
<path d="M2.5 13.41V23.75C2.5 24.0925 2.56125 24.4188 2.64875 24.7363L8.31 18.11L2.5 13.41Z" fill="white"/>
<path d="M25 3.75V12.2163L15 20.305L5 12.2163V3.75C5 3.75 5 2.5975 6.25 2.5H23.7512C24.4412 2.5 25 3.06 25 3.75Z" fill="white"/>
<path d="M20.475 6.21251C19.9863 5.72376 19.1962 5.72376 18.7075 6.21251L13.8113 11.1088L11.2825 8.58001C10.7937 8.09126 10.0037 8.09126 9.515 8.58001C9.02625 9.06876 9.02625 9.85876 9.515 10.3475L12.9263 13.7588C13.17 14.0025 13.49 14.125 13.81 14.125C14.13 14.125 14.45 14.0025 14.6937 13.7588L20.4737 7.97876C20.9625 7.49126 20.9625 6.70001 20.475 6.21251Z" fill="#3B9797"/>
</svg>
