<svg width="40" height="40" viewBox="0 0 40 40" fill="none" xmlns="http://www.w3.org/2000/svg">
<path d="M33.75 37.4988H6.25C5.58696 37.4988 4.95107 37.2354 4.48223 36.7666C4.01339 36.2978 3.75 35.6619 3.75 34.9988V11.5488C3.75 11.2173 3.8817 10.8994 4.11612 10.6649C4.35054 10.4305 4.66848 10.2988 5 10.2988H35C35.3315 10.2988 35.6495 10.4305 35.8839 10.6649C36.1183 10.8994 36.25 11.2173 36.25 11.5488V34.9988C36.25 35.6619 35.9866 36.2978 35.5178 36.7666C35.0489 37.2354 34.413 37.4988 33.75 37.4988ZM6.25 12.7988V34.9988H33.75V12.7988H6.25Z" fill="#2D2D2D"/>
<path d="M35.0002 12.7992H5.00016C4.78535 12.7997 4.57405 12.7447 4.38664 12.6397C4.19923 12.5348 4.04204 12.3833 3.93023 12.1998C3.81842 12.0164 3.75577 11.8073 3.74831 11.5926C3.74086 11.3779 3.78885 11.1649 3.88766 10.9742L7.65016 3.7492C7.89775 3.35298 8.24525 3.02888 8.65775 2.80946C9.07024 2.59005 9.53322 2.48305 10.0002 2.4992H30.0002C30.4733 2.47632 30.9441 2.58009 31.3637 2.79983C31.7834 3.01956 32.1369 3.34729 32.3877 3.7492L36.1377 10.9242C36.25 11.1183 36.3081 11.339 36.3058 11.5633C36.3035 11.7875 36.2409 12.0071 36.1246 12.1988C36.0082 12.3905 35.8425 12.5475 35.6446 12.6531C35.4468 12.7587 35.2242 12.8092 35.0002 12.7992ZM7.06266 10.2992H32.9377L30.1502 4.9992C30.1502 4.9992 30.0877 4.9992 30.0002 4.9992H10.0002C9.92242 4.97793 9.8404 4.97793 9.76266 4.9992L7.06266 10.2992Z" fill="#2D2D2D"/>
<path d="M20 11.25C19.6685 11.25 19.3505 11.1183 19.1161 10.8839C18.8817 10.6495 18.75 10.3315 18.75 10V5C18.75 4.66848 18.8817 4.35054 19.1161 4.11612C19.3505 3.8817 19.6685 3.75 20 3.75C20.3315 3.75 20.6495 3.8817 20.8839 4.11612C21.1183 4.35054 21.25 4.66848 21.25 5V10C21.25 10.3315 21.1183 10.6495 20.8839 10.8839C20.6495 11.1183 20.3315 11.25 20 11.25Z" fill="#2D2D2D"/>
<path d="M15 27.5H11.25C10.9185 27.5 10.6005 27.3683 10.3661 27.1339C10.1317 26.8995 10 26.5815 10 26.25C10 25.9185 10.1317 25.6005 10.3661 25.3661C10.6005 25.1317 10.9185 25 11.25 25H15C15.3315 25 15.6495 25.1317 15.8839 25.3661C16.1183 25.6005 16.25 25.9185 16.25 26.25C16.25 26.5815 16.1183 26.8995 15.8839 27.1339C15.6495 27.3683 15.3315 27.5 15 27.5Z" fill="#7445FF"/>
<path d="M20 32.5H11.25C10.9185 32.5 10.6005 32.3683 10.3661 32.1339C10.1317 31.8995 10 31.5815 10 31.25C10 30.9185 10.1317 30.6005 10.3661 30.3661C10.6005 30.1317 10.9185 30 11.25 30H20C20.3315 30 20.6495 30.1317 20.8839 30.3661C21.1183 30.6005 21.25 30.9185 21.25 31.25C21.25 31.5815 21.1183 31.8995 20.8839 32.1339C20.6495 32.3683 20.3315 32.5 20 32.5Z" fill="#7445FF"/>
</svg>
