<svg width="50" height="50" viewBox="0 0 50 50" fill="none" xmlns="http://www.w3.org/2000/svg">
<path fill-rule="evenodd" clip-rule="evenodd" d="M45.2023 32.9868C45.2023 37.2091 41.7678 40.6383 37.5509 40.6383H12.4477C8.23076 40.6383 4.79609 37.209 4.79609 32.9868V17.014C4.79609 15.6048 5.18193 14.2813 5.85166 13.1453L18.1005 25.3941C19.933 27.232 22.387 28.2447 25.0019 28.2447C27.6113 28.2447 30.0653 27.232 31.8979 25.3941L44.1467 13.1453C44.8165 14.2813 45.2022 15.6047 45.2022 17.014V32.9868H45.2023ZM37.5508 9.3625H12.4477C10.7063 9.3625 9.09873 9.95186 7.81279 10.9324L20.1849 23.3099C21.4655 24.5851 23.1747 25.2924 25.0019 25.2924C26.8236 25.2924 28.5329 24.5851 29.8135 23.3099L42.1855 10.9324C40.8997 9.95186 39.2923 9.3625 37.5508 9.3625ZM37.5508 6.41016H12.4477C6.60186 6.41016 1.84375 11.1683 1.84375 17.0141V32.9869C1.84375 38.8381 6.60186 43.5908 12.4477 43.5908H37.5508C43.3966 43.5908 48.1547 38.8381 48.1547 32.9869V17.014C48.1547 11.1682 43.3966 6.41016 37.5508 6.41016Z" fill="#7445FF"/>
</svg>
