<svg width="60" height="60" viewBox="0 0 60 60" fill="none" xmlns="http://www.w3.org/2000/svg">
<g clip-path="url(#clip0_2015_8176)">
<path d="M42.9596 43.0476C41.4892 43.0476 40.0996 43.7747 39.2029 44.825L32.1741 41.351C32.4165 40.4623 32.5862 39.4928 32.5862 38.4426C32.5862 34.9686 30.8734 31.8986 28.2558 30.0404L36.0197 16.8716C36.4318 16.9524 36.8357 17.0332 37.2478 17.0332C39.8653 17.0332 42.0709 14.9327 42.0709 12.2666C42.0709 9.60054 39.9461 7.5 37.2478 7.5C34.5494 7.5 32.4246 9.60054 32.4246 12.2666C32.4246 13.7208 33.079 15.0943 34.2262 15.9022L26.4623 28.9901C25.3959 28.5054 24.3375 28.1822 23.1095 28.1014V22.5269C25.2343 22.0422 26.8662 20.184 26.8662 17.9219C26.8662 15.3366 24.7415 13.1553 22.0431 13.1553C19.3447 13.1553 17.2199 15.2558 17.2199 17.9219C17.2199 20.184 18.8519 22.123 20.9767 22.5269V28.1014C15.6607 28.5862 11.5 33.0296 11.5 38.4426C11.5 44.1786 16.1616 48.7837 21.9623 48.7837C25.9695 48.7837 29.4838 46.5215 31.2774 43.2092L38.3061 46.6023C38.2253 47.0063 38.1445 47.3294 38.1445 47.7334C38.1445 50.3187 40.2693 52.5 42.9677 52.5C45.6661 52.5 47.7908 50.3995 47.7908 47.7334C47.7908 45.0673 45.5853 43.0476 42.9677 43.0476H42.9596Z" fill="#C3D21C"/>
</g>
<defs>
<clipPath id="clip0_2015_8176">
<rect width="37" height="45" fill="white" transform="translate(11.5 7.5)"/>
</clipPath>
</defs>
</svg>
