<svg width="50" height="50" viewBox="0 0 50 50" fill="none" xmlns="http://www.w3.org/2000/svg">
<path d="M25 23.4375C28.2309 23.4375 30.8594 20.809 30.8594 17.5781C30.8594 14.3473 28.2309 11.7188 25 11.7188C21.7691 11.7188 19.1406 14.3473 19.1406 17.5781C19.1406 20.809 21.7691 23.4375 25 23.4375ZM25 15.625C26.077 15.625 26.9531 16.5012 26.9531 17.5781C26.9531 18.6551 26.077 19.5312 25 19.5312C23.923 19.5312 23.0469 18.6551 23.0469 17.5781C23.0469 16.5012 23.923 15.625 25 15.625Z" fill="#7445FF"/>
<path d="M42.5781 17.5781C42.5781 7.88555 34.6926 0 25 0C15.3074 0 7.42188 7.88555 7.42188 17.5781C7.42188 21.4126 8.63496 25.0567 10.9301 28.1166L20.3107 40.6231C21.4126 42.0919 23.1656 42.9688 25 42.9688C26.8344 42.9688 28.5874 42.0919 29.6894 40.6229L39.0699 28.1166C41.365 25.0567 42.5781 21.4126 42.5781 17.5781ZM35.945 25.7727L26.5646 38.2789C26.1909 38.777 25.6207 39.0625 25 39.0625C24.3793 39.0625 23.8091 38.777 23.4355 38.2791L14.055 25.7727C12.2711 23.3943 11.3281 20.5606 11.3281 17.5781C11.3281 10.0395 17.4613 3.90625 25 3.90625C32.5387 3.90625 38.6719 10.0395 38.6719 17.5781C38.6719 20.5606 37.7289 23.3943 35.945 25.7727Z" fill="#7445FF"/>
<path d="M34.7656 48.0469C34.7656 46.9682 33.8912 46.0938 32.8125 46.0938H17.1875C16.1088 46.0938 15.2344 46.9682 15.2344 48.0469C15.2344 49.1256 16.1088 50 17.1875 50H32.8125C33.8912 50 34.7656 49.1256 34.7656 48.0469Z" fill="#7445FF"/>
</svg>
