<svg width="607" height="607" viewBox="0 0 607 607" fill="none" xmlns="http://www.w3.org/2000/svg">
<rect x="1" y="1" width="605" height="605" rx="302.5" stroke="#7445FF" stroke-opacity="0.2" stroke-width="2"/>
<path d="M295.349 467.214C397.305 467.214 479.956 384.563 479.956 282.607C479.956 180.651 397.305 98 295.349 98C193.394 98 110.742 180.651 110.742 282.607C110.742 384.563 193.394 467.214 295.349 467.214Z" fill="#C7CFFF"/>
<path d="M387.296 259.048L229.603 366.34L214.145 343.62L371.838 236.328C378.112 232.059 386.659 233.685 390.928 239.959C395.195 246.233 393.57 254.78 387.296 259.048Z" fill="#FFF0F8"/>
<path d="M177.561 351.526C177.527 348.595 177.559 344.213 177.932 338.923C179.864 311.479 188.283 297.387 192.759 277.686C195.049 267.608 196.94 253.272 194.96 234.929C194.36 229.368 197.224 223.886 202.312 221.562C203.373 221.078 204.508 220.731 205.692 220.545C211.761 219.593 217.833 223.069 220.166 228.938L288.056 329.086L312.256 405.3C305.93 413.726 294.704 426.424 277.139 436.801C264.327 444.371 252.319 448.237 243.487 450.314C221.511 417.384 199.536 384.455 177.561 351.526Z" fill="#FFF0F8"/>
<path d="M343.881 427.405H242.412C230.123 427.405 220.16 417.442 220.16 405.152V163.988C220.16 151.699 230.123 141.736 242.412 141.736H343.881C356.171 141.736 366.134 151.699 366.134 163.988V405.152C366.134 417.442 356.171 427.405 343.881 427.405Z" fill="#7445FF"/>
<path d="M343.215 418.05H243.08C233.863 418.05 226.391 410.578 226.391 401.361V167.78C226.391 158.563 233.863 151.091 243.08 151.091H343.215C352.432 151.091 359.904 158.563 359.904 167.78V401.361C359.904 410.578 352.432 418.05 343.215 418.05Z" fill="white"/>
<path d="M293.148 248.505C306.35 248.505 317.053 237.803 317.053 224.6C317.053 211.398 306.35 200.695 293.148 200.695C279.945 200.695 269.242 211.398 269.242 224.6C269.242 237.803 279.945 248.505 293.148 248.505Z" fill="#7445FF"/>
<path d="M293.264 235.432C292.898 235.432 292.541 235.294 292.269 235.04L281.033 224.601C280.442 224.052 280.408 223.126 280.957 222.535C281.507 221.943 282.432 221.909 283.024 222.459L292.926 231.658L303.021 214.489C303.429 213.792 304.326 213.56 305.023 213.97C305.719 214.379 305.951 215.275 305.542 215.971L294.526 234.71C294.301 235.092 293.915 235.351 293.477 235.415C293.405 235.427 293.335 235.432 293.264 235.432Z" fill="white"/>
<path d="M264.062 294.216C264.221 294.823 264.697 295.17 265.47 295.17C266.263 295.17 266.562 294.861 266.562 294.382C266.562 293.881 266.264 293.669 265.187 293.406C263.073 292.888 262.698 292.236 262.698 291.293C262.698 290.311 263.4 289.293 265.341 289.293C267.289 289.293 267.992 290.377 268.06 291.302H266.497C266.425 290.989 266.203 290.471 265.268 290.471C264.538 290.471 264.311 290.806 264.311 291.157C264.311 291.551 264.543 291.743 265.69 292.012C267.878 292.525 268.228 293.268 268.228 294.265C268.228 295.407 267.346 296.375 265.41 296.375C263.457 296.375 262.606 295.419 262.449 294.216H264.062V294.216Z" fill="#7445FF"/>
<path d="M275.223 294.249C275.223 294.903 275.227 295.681 275.236 296.217H273.636C273.61 296.037 273.597 295.658 273.587 295.358C273.209 296.061 272.593 296.375 271.661 296.375C270.363 296.375 269.41 295.629 269.41 293.873V289.451H271.043V293.539C271.043 294.334 271.29 295.02 272.206 295.02C273.191 295.02 273.587 294.485 273.587 293.027V289.45H275.223V294.249Z" fill="#7445FF"/>
<path d="M282.731 294.07C282.479 295.21 281.688 296.375 279.771 296.375C277.748 296.375 276.641 294.958 276.641 292.879C276.641 290.909 277.813 289.293 279.86 289.293C282.03 289.293 282.677 290.847 282.732 291.649H281.128C280.995 291.051 280.643 290.595 279.828 290.595C278.857 290.595 278.308 291.438 278.308 292.826C278.308 294.3 278.869 295.083 279.809 295.083C280.521 295.083 280.915 294.68 281.119 294.071H282.731V294.07Z" fill="#7445FF"/>
<path d="M289.731 294.07C289.479 295.21 288.688 296.375 286.771 296.375C284.748 296.375 283.641 294.958 283.641 292.879C283.641 290.909 284.813 289.293 286.86 289.293C289.03 289.293 289.677 290.847 289.732 291.649H288.128C287.995 291.051 287.643 290.595 286.828 290.595C285.857 290.595 285.308 291.438 285.308 292.826C285.308 294.3 285.869 295.083 286.809 295.083C287.521 295.083 287.915 294.68 288.119 294.071H289.731V294.07Z" fill="#7445FF"/>
<path d="M292.271 293.172C292.275 294.196 292.789 295.074 293.794 295.074C294.672 295.074 294.936 294.681 295.127 294.243H296.768C296.519 295.083 295.784 296.375 293.75 296.375C291.555 296.375 290.621 294.688 290.621 292.924C290.621 290.838 291.685 289.293 293.819 289.293C296.096 289.293 296.86 290.998 296.86 292.604C296.86 292.826 296.86 292.982 296.838 293.172H292.271ZM295.217 292.131C295.204 291.234 294.807 290.493 293.812 290.493C292.816 290.493 292.4 291.183 292.311 292.131H295.217Z" fill="#7445FF"/>
<path d="M299.367 294.216C299.526 294.823 300.002 295.17 300.775 295.17C301.568 295.17 301.866 294.861 301.866 294.382C301.866 293.881 301.569 293.669 300.491 293.406C298.378 292.888 298.002 292.236 298.002 291.293C298.002 290.311 298.706 289.293 300.645 289.293C302.594 289.293 303.296 290.377 303.365 291.302H301.802C301.73 290.989 301.507 290.471 300.573 290.471C299.843 290.471 299.615 290.806 299.615 291.157C299.615 291.551 299.848 291.743 300.994 292.012C303.182 292.525 303.533 293.268 303.533 294.265C303.533 295.407 302.65 296.375 300.715 296.375C298.762 296.375 297.91 295.419 297.754 294.216H299.367V294.216Z" fill="#7445FF"/>
<path d="M306.015 294.216C306.175 294.823 306.651 295.17 307.423 295.17C308.217 295.17 308.515 294.861 308.515 294.382C308.515 293.881 308.217 293.669 307.14 293.406C305.026 292.888 304.651 292.236 304.651 291.293C304.651 290.311 305.354 289.293 307.294 289.293C309.243 289.293 309.944 290.377 310.013 291.302H308.451C308.378 290.989 308.156 290.471 307.222 290.471C306.492 290.471 306.264 290.806 306.264 291.157C306.264 291.551 306.496 291.743 307.643 292.012C309.831 292.525 310.181 293.268 310.181 294.265C310.181 295.407 309.299 296.375 307.363 296.375C305.411 296.375 304.559 295.419 304.402 294.216H306.015V294.216Z" fill="#7445FF"/>
<path d="M311.771 296.217V290.706H310.75V289.451H311.771V288.784C311.771 287.438 312.392 286.458 313.866 286.458C314.156 286.458 314.528 286.488 314.696 286.54V287.855C314.572 287.83 314.395 287.813 314.234 287.813C313.633 287.813 313.408 288.089 313.408 288.902V289.45H314.65V290.705H313.408V296.216H311.771V296.217Z" fill="#7445FF"/>
<path d="M321.372 294.249C321.372 294.903 321.376 295.681 321.386 296.217H319.784C319.758 296.037 319.745 295.658 319.735 295.358C319.357 296.061 318.742 296.375 317.81 296.375C316.511 296.375 315.559 295.629 315.559 293.873V289.451H317.191V293.539C317.191 294.334 317.438 295.02 318.354 295.02C319.34 295.02 319.735 294.485 319.735 293.027V289.45H321.372L321.372 294.249Z" fill="#7445FF"/>
<path d="M323.164 296.217V286.589H324.8V296.217H323.164Z" fill="#7445FF"/>
<path d="M256.149 272.025H261.17C263.613 272.025 265.257 273.385 265.257 275.5C265.257 277.934 263.389 279.054 261.094 279.054H259.283V282.858H256.148L256.149 272.025ZM259.283 276.819H260.578C261.475 276.819 262.113 276.446 262.113 275.542C262.113 274.616 261.47 274.255 260.586 274.255H259.283V276.819Z" fill="#7445FF"/>
<path d="M268.605 280.751L267.979 282.858H264.887L268.311 272.025H272.42L275.979 282.858H272.664L272.006 280.751H268.605ZM271.448 278.399C270.939 276.696 270.522 275.183 270.277 274.127H270.233C269.983 275.294 269.568 276.84 269.129 278.399H271.448Z" fill="#7445FF"/>
<path d="M278.283 282.858V279.106C278.283 278.964 278.273 278.859 278.172 278.695L274.465 272.025H278.05C278.742 273.552 279.518 275.31 280.019 276.548C280.458 275.363 281.372 273.418 282.01 272.025H285.32L281.565 278.68C281.513 278.77 281.465 278.866 281.465 279.086V282.858H278.283V282.858Z" fill="#7445FF"/>
<path d="M295.236 279.323C295.236 277.63 295.273 275.449 295.32 274.162H295.236C294.783 276.485 294.054 279.702 293.262 282.858H290.721C290.098 279.798 289.387 276.574 288.965 274.163H288.87C288.959 275.438 289.018 277.552 289.018 279.408V282.858H286.191V272.025H290.761C291.295 274.217 291.92 277.395 292.162 278.996H292.217C292.495 277.254 293.217 274.379 293.848 272.025H298.287V282.858H295.237V279.323H295.236Z" fill="#7445FF"/>
<path d="M308.501 278.474H303.567V280.506H309.075L308.721 282.858H300.512V272.025H308.71V274.378H303.566V276.122H308.501V278.474H308.501Z" fill="#7445FF"/>
<path d="M310.516 282.858V272.025H314.315C315.454 274.465 317.104 277.762 317.56 279.096H317.613C317.493 277.971 317.466 276.057 317.466 274.33V272.025H320.359V282.858H316.74C315.821 280.897 313.861 276.832 313.352 275.402H313.309C313.41 276.422 313.419 278.518 313.419 280.425V282.858H310.516Z" fill="#7445FF"/>
<path d="M324.85 274.377H321.754V272.025H331.098V274.377H328.028V282.858H324.85V274.377Z" fill="#7445FF"/>
<path d="M247.082 456.244L170.578 340.504L19.3184 454.216L95.8219 569.956L247.082 456.244Z" fill="#7445FF"/>
<path d="M383.534 311.693L370.759 315.619C363.403 317.88 355.606 313.749 353.345 306.392C351.084 299.036 355.215 291.239 362.572 288.978L375.346 285.053C377.267 284.462 379.304 285.541 379.895 287.463L385.943 307.146C386.534 309.065 385.455 311.102 383.534 311.693Z" fill="#FFF0F8"/>
<path d="M373.892 310.193L369.464 311.554C364.341 313.129 358.912 310.252 357.337 305.129C355.763 300.006 358.639 294.577 363.763 293.002L368.191 291.641C369.555 291.222 370.999 291.987 371.418 293.351L375.602 306.966C376.021 308.329 375.256 309.774 373.892 310.193Z" fill="white"/>
<path d="M380.974 347.652L369.265 351.251C362.521 353.324 355.374 349.536 353.301 342.793C351.229 336.049 355.016 328.903 361.759 326.83L373.469 323.232C375.23 322.69 377.097 323.679 377.638 325.441L383.183 343.483C383.725 345.244 382.736 347.111 380.974 347.652Z" fill="#FFF0F8"/>
<path d="M372.138 346.277L368.078 347.524C363.382 348.967 358.404 346.33 356.961 341.634C355.518 336.938 358.155 331.961 362.851 330.518L366.911 329.27C368.161 328.886 369.485 329.588 369.869 330.837L373.705 343.317C374.089 344.568 373.387 345.893 372.138 346.277Z" fill="white"/>
<path d="M426.299 496.734L316.67 361.389C312.038 355.67 312.919 347.279 318.638 342.646L319.585 341.879C325.304 337.246 333.695 338.127 338.328 343.846L447.956 479.192L426.299 496.734Z" fill="#FFF0F8"/>
<path d="M323.256 362.746L320.339 359.146C316.966 354.981 317.608 348.87 321.772 345.496C325.937 342.123 332.048 342.764 335.422 346.929L338.338 350.529C339.236 351.638 339.065 353.265 337.956 354.162L326.888 363.127C325.78 364.025 324.154 363.854 323.256 362.746Z" fill="white"/>
<path d="M462.14 507.51L361.248 478.708C354.952 476.911 351.306 470.351 353.103 464.056L354.246 460.053C356.043 453.757 362.603 450.111 368.898 451.908L469.791 480.711L462.14 507.51Z" fill="#FFF0F8"/>
<path d="M463.633 498.338L386.19 402.728C381.716 397.204 382.567 389.099 388.09 384.625L389.745 383.285C395.269 378.811 403.374 379.662 407.847 385.185L485.291 480.796L463.633 498.338Z" fill="#FFF0F8"/>
<path d="M485.255 480.82L407.811 385.209C403.337 379.685 404.188 371.58 409.712 367.106L411.366 365.766C416.89 361.291 424.995 362.143 429.468 367.666L506.912 463.276L485.255 480.82Z" fill="#FFF0F8"/>
<path d="M506.907 463.277L429.464 367.666C424.989 362.142 425.84 354.037 431.364 349.564L433.018 348.223C438.542 343.749 446.647 344.6 451.121 350.124L528.564 445.734L506.907 463.277Z" fill="#FFF0F8"/>
<path d="M509.973 583.835L600.504 478.695L526.686 415.135L436.156 520.275L509.973 583.835Z" fill="#7445FF"/>
</svg>
