<svg width="30" height="30" viewBox="0 0 30 30" fill="none" xmlns="http://www.w3.org/2000/svg">
<path d="M12.373 14.7068C15.7094 14.7068 18.4141 12.0022 18.4141 8.66583C18.4141 5.32947 15.7094 2.62482 12.373 2.62482C9.03669 2.62482 6.33203 5.32947 6.33203 8.66583C6.33203 12.0022 9.03669 14.7068 12.373 14.7068Z" fill="white"/>
<path d="M24.75 27.3749H0L4.25977 16.4999H16.4121C16.4766 20.3554 19.5117 23.5019 23.3262 23.7421L24.75 27.3749Z" fill="white"/>
<path d="M23.7891 10.166C20.3613 10.166 17.5781 12.9433 17.5781 16.3769C17.5781 19.8105 20.3613 22.5878 23.7891 22.5878C27.2168 22.5878 30 19.8105 30 16.3769C30 12.9433 27.2227 10.166 23.7891 10.166ZM22.6758 19.787L19.5469 16.6581L21.0117 15.1933L22.6758 16.8574L26.5781 12.955L28.043 14.4199L22.6758 19.787Z" fill="white"/>
</svg>
