<svg width="40" height="40" viewBox="0 0 40 40" fill="none" xmlns="http://www.w3.org/2000/svg">
<path d="M27.3751 33.75H12.6251C12.0216 33.7504 11.427 33.6052 10.8916 33.3266C10.3563 33.0481 9.89607 32.6444 9.55008 32.15C9.16071 31.6169 8.90332 30.999 8.79902 30.3472C8.69472 29.6953 8.74649 29.028 8.95008 28.4C9.66463 26.0099 11.1198 23.9084 13.1058 22.3987C15.0918 20.889 17.5059 20.0491 20.0001 20C22.499 20.0515 24.9167 20.8969 26.9033 22.4138C28.8898 23.9307 30.3422 26.0404 31.0501 28.4375C31.2537 29.0655 31.3054 29.7328 31.2011 30.3847C31.0968 31.0365 30.8395 31.6544 30.4501 32.1875C30.1 32.675 29.638 33.0714 29.1029 33.3433C28.5678 33.6152 27.9753 33.7546 27.3751 33.75ZM20.0001 22.5C18.0304 22.5521 16.1283 23.2294 14.5688 24.4338C13.0093 25.6382 11.8734 27.3074 11.3251 29.2C11.2507 29.4478 11.2334 29.7093 11.2745 29.9648C11.3156 30.2202 11.4141 30.4631 11.5626 30.675C11.6829 30.8468 11.8415 30.9882 12.0259 31.088C12.2103 31.1878 12.4155 31.2433 12.6251 31.25H27.3751C27.5847 31.2433 27.7898 31.1878 27.9742 31.088C28.1587 30.9882 28.3173 30.8468 28.4376 30.675C28.586 30.4631 28.6845 30.2202 28.7257 29.9648C28.7668 29.7093 28.7495 29.4478 28.6751 29.2C28.1268 27.3074 26.9908 25.6382 25.4314 24.4338C23.8719 23.2294 21.9698 22.5521 20.0001 22.5Z" fill="#2D2D2D"/>
<path d="M34.2746 33.7494H23.2246C22.8931 33.7494 22.5751 33.6177 22.3407 33.3832C22.1063 33.1488 21.9746 32.8309 21.9746 32.4994C21.9746 32.1678 22.1063 31.8499 22.3407 31.6155C22.5751 31.381 22.8931 31.2494 23.2246 31.2494H34.2746C34.3963 31.2519 34.5168 31.2248 34.6257 31.1703C34.7346 31.1159 34.8286 31.0358 34.8996 30.9369C34.9457 30.8678 34.9762 30.7896 34.9892 30.7076C35.0021 30.6256 34.9971 30.5417 34.9746 30.4619C34.4919 29.2077 33.6364 28.1316 32.5234 27.3784C31.4104 26.6252 30.0934 26.2312 28.7496 26.2494H28.5371C28.373 26.2674 28.2069 26.253 28.0483 26.2068C27.8897 26.1607 27.7418 26.0838 27.613 25.9805C27.4841 25.8772 27.3769 25.7495 27.2974 25.6047C27.2179 25.46 27.1677 25.301 27.1496 25.1369C27.1316 24.9727 27.146 24.8066 27.1921 24.648C27.2383 24.4895 27.3152 24.3415 27.4185 24.2127C27.5218 24.0839 27.6495 23.9766 27.7942 23.8971C27.939 23.8176 28.098 23.7674 28.2621 23.7494C28.4244 23.7372 28.5873 23.7372 28.7496 23.7494C30.6086 23.7324 32.4279 24.2868 33.9616 25.3375C35.4952 26.3883 36.6692 27.8847 37.3246 29.6244C37.4886 30.0818 37.539 30.5722 37.4715 31.0534C37.404 31.5346 37.2206 31.9922 36.9371 32.3869C36.6334 32.8091 36.2335 33.1529 35.7705 33.3898C35.3075 33.6267 34.7947 33.75 34.2746 33.7494Z" fill="#2D2D2D"/>
<path d="M16.775 33.7494H5.72495C5.20485 33.75 4.69208 33.6267 4.22909 33.3898C3.76609 33.1529 3.36618 32.8091 3.06245 32.3869C2.77906 31.9946 2.59565 31.5391 2.52813 31.0598C2.4606 30.5806 2.511 30.0922 2.67495 29.6369C3.32838 27.8948 4.50144 26.3958 6.03525 25.3427C7.56906 24.2896 9.38949 23.7333 11.25 23.7494C11.4122 23.7372 11.5752 23.7372 11.7375 23.7494C12.069 23.7858 12.3724 23.9525 12.5811 24.2127C12.7897 24.4729 12.8864 24.8053 12.85 25.1369C12.8135 25.4684 12.6468 25.7718 12.3866 25.9805C12.1264 26.1891 11.794 26.2858 11.4625 26.2494H11.25C9.90011 26.2252 8.57565 26.6179 7.45717 27.374C6.33869 28.1301 5.48062 29.2128 4.99995 30.4744C4.97479 30.5519 4.96846 30.6342 4.98151 30.7147C4.99455 30.7951 5.02659 30.8713 5.07495 30.9369C5.14595 31.0358 5.23995 31.1159 5.34884 31.1703C5.45773 31.2248 5.57824 31.2519 5.69995 31.2494H16.75C17.0815 31.2494 17.3994 31.381 17.6338 31.6155C17.8683 31.8499 18 32.1678 18 32.4994C18 32.8309 17.8683 33.1488 17.6338 33.3832C17.3994 33.6177 17.0815 33.7494 16.75 33.7494H16.775Z" fill="#2D2D2D"/>
<path d="M20 18.75C18.7639 18.75 17.5555 18.3834 16.5277 17.6967C15.4999 17.0099 14.6988 16.0338 14.2258 14.8918C13.7527 13.7497 13.6289 12.4931 13.8701 11.2807C14.1113 10.0683 14.7065 8.95466 15.5806 8.08059C16.4547 7.20651 17.5683 6.61125 18.7807 6.37009C19.9931 6.12894 21.2497 6.25271 22.3918 6.72576C23.5338 7.1988 24.5099 7.99988 25.1967 9.02769C25.8834 10.0555 26.25 11.2639 26.25 12.5C26.25 14.1576 25.5915 15.7473 24.4194 16.9194C23.2473 18.0915 21.6576 18.75 20 18.75ZM20 8.75C19.2583 8.75 18.5333 8.96994 17.9166 9.38199C17.2999 9.79405 16.8193 10.3797 16.5355 11.0649C16.2516 11.7502 16.1774 12.5042 16.3221 13.2316C16.4668 13.959 16.8239 14.6272 17.3484 15.1517C17.8728 15.6761 18.541 16.0333 19.2684 16.1779C19.9958 16.3226 20.7498 16.2484 21.4351 15.9646C22.1203 15.6807 22.706 15.2001 23.118 14.5834C23.5301 13.9667 23.75 13.2417 23.75 12.5C23.75 11.5054 23.3549 10.5516 22.6517 9.84835C21.9484 9.14509 20.9946 8.75 20 8.75Z" fill="#7445FF"/>
<path d="M30 22.5C29.2583 22.5 28.5333 22.2801 27.9166 21.868C27.2999 21.456 26.8193 20.8703 26.5355 20.1851C26.2516 19.4998 26.1774 18.7458 26.3221 18.0184C26.4668 17.291 26.8239 16.6228 27.3484 16.0984C27.8728 15.5739 28.541 15.2168 29.2684 15.0721C29.9958 14.9274 30.7498 15.0016 31.4351 15.2855C32.1203 15.5693 32.706 16.0499 33.118 16.6666C33.5301 17.2833 33.75 18.0083 33.75 18.75C33.75 19.7446 33.3549 20.6984 32.6517 21.4017C31.9484 22.1049 30.9946 22.5 30 22.5ZM30 17.5C29.7528 17.5 29.5111 17.5733 29.3055 17.7107C29.1 17.848 28.9398 18.0432 28.8452 18.2716C28.7505 18.5001 28.7258 18.7514 28.774 18.9939C28.8223 19.2363 28.9413 19.4591 29.1161 19.6339C29.2909 19.8087 29.5137 19.9278 29.7561 19.976C29.9986 20.0242 30.2499 19.9995 30.4784 19.9049C30.7068 19.8102 30.902 19.65 31.0393 19.4445C31.1767 19.2389 31.25 18.9972 31.25 18.75C31.25 18.4185 31.1183 18.1005 30.8839 17.8661C30.6495 17.6317 30.3315 17.5 30 17.5Z" fill="#7445FF"/>
<path d="M10 22.5C9.25832 22.5 8.5333 22.2801 7.91661 21.868C7.29993 21.456 6.81928 20.8703 6.53545 20.1851C6.25162 19.4998 6.17736 18.7458 6.32206 18.0184C6.46675 17.291 6.8239 16.6228 7.34835 16.0984C7.8728 15.5739 8.54098 15.2168 9.26841 15.0721C9.99584 14.9274 10.7498 15.0016 11.4351 15.2855C12.1203 15.5693 12.706 16.0499 13.118 16.6666C13.5301 17.2833 13.75 18.0083 13.75 18.75C13.75 19.7446 13.3549 20.6984 12.6517 21.4017C11.9484 22.1049 10.9946 22.5 10 22.5ZM10 17.5C9.75277 17.5 9.5111 17.5733 9.30554 17.7107C9.09998 17.848 8.93976 18.0432 8.84515 18.2716C8.75054 18.5001 8.72579 18.7514 8.77402 18.9939C8.82225 19.2363 8.9413 19.4591 9.11612 19.6339C9.29093 19.8087 9.51366 19.9278 9.75614 19.976C9.99861 20.0242 10.2499 19.9995 10.4784 19.9049C10.7068 19.8102 10.902 19.65 11.0393 19.4445C11.1767 19.2389 11.25 18.9972 11.25 18.75C11.25 18.4185 11.1183 18.1005 10.8839 17.8661C10.6495 17.6317 10.3315 17.5 10 17.5Z" fill="#7445FF"/>
</svg>
