<svg width="156" height="46" viewBox="0 0 156 46" fill="none" xmlns="http://www.w3.org/2000/svg">
<path d="M154.145 40.5755C154.145 43.0073 152.181 44.9902 149.73 44.9902H5.4207C2.98904 44.9902 1.00632 43.026 1.00632 40.5755V5.4441C1.00632 3.01222 2.98904 1.0293 5.4207 1.0293H149.73C152.162 1.0293 154.145 3.01222 154.145 5.4441V40.5755Z" fill="white"/>
<path d="M149.753 46H5.44317C2.45036 46 0 43.5681 0 40.575V5.44367C0 2.45059 2.43166 0 5.44317 0H149.753C152.745 0 155.196 2.43188 155.196 5.44367V40.575C155.177 43.5681 152.745 46 149.753 46Z" fill="#A6A6A6"/>
<path d="M154.145 40.5755C154.145 43.0073 152.181 44.9902 149.73 44.9902H5.4207C2.98904 44.9902 1.00632 43.026 1.00632 40.5755V5.4441C1.00632 3.01222 2.98904 1.0293 5.4207 1.0293H149.73C152.162 1.0293 154.145 3.01222 154.145 5.4441V40.5755Z" fill="black"/>
<path d="M34.6456 22.7663C34.6082 19.0623 37.6758 17.2477 37.8255 17.1729C36.0859 14.6475 33.3924 14.2921 32.4384 14.2734C30.1752 14.0301 27.9867 15.6202 26.8269 15.6202C25.6485 15.6202 23.8715 14.2921 21.9636 14.3295C19.4946 14.3669 17.1939 15.7886 15.9406 18.0147C13.3406 22.523 15.286 29.164 17.7737 32.8118C19.027 34.6077 20.4859 36.5906 22.3938 36.5157C24.2643 36.4409 24.9564 35.3185 27.2197 35.3185C29.4456 35.3185 30.119 36.5157 32.0644 36.4596C34.0657 36.4222 35.3377 34.6638 36.5348 32.868C37.9751 30.8288 38.555 28.8085 38.5736 28.6963C38.5363 28.6776 34.6831 27.1998 34.6456 22.7663Z" fill="white"/>
<path d="M30.9587 11.8599C31.9687 10.6066 32.6608 8.88555 32.455 7.16455C30.9961 7.22067 29.1817 8.17472 28.1342 9.40938C27.199 10.4943 26.376 12.2715 26.6004 13.9364C28.2464 14.0486 29.9112 13.0946 30.9587 11.8599Z" fill="white"/>
<path d="M61.7237 36.2348H59.105L57.6834 31.7452H52.6892L51.3237 36.2348H48.7798L53.6992 20.9326H56.7482L61.7237 36.2348ZM57.2345 29.8557L55.9439 25.8525C55.813 25.4409 55.551 24.4869 55.177 22.9716H55.1395C54.9899 23.6264 54.7468 24.5804 54.41 25.8525L53.1381 29.8557H57.2345Z" fill="white"/>
<path d="M74.3706 30.5855C74.3706 32.4562 73.8655 33.9527 72.8368 35.0378C71.9202 36.0105 70.7792 36.4969 69.4325 36.4969C67.9735 36.4969 66.926 35.973 66.29 34.9255V40.7246H63.8397V28.8458C63.8397 27.6673 63.8023 26.4513 63.7462 25.2167H65.8972L66.0281 26.9751H66.0656C66.8886 25.6656 68.1231 24.9922 69.7879 24.9922C71.0972 24.9922 72.1821 25.4973 73.0425 26.5448C73.9217 27.555 74.3706 28.9019 74.3706 30.5855ZM71.8641 30.679C71.8641 29.6127 71.6209 28.7148 71.1346 28.0227C70.6109 27.2931 69.9001 26.9377 69.0022 26.9377C68.4037 26.9377 67.8426 27.1434 67.3562 27.5363C66.8699 27.9479 66.5332 28.4717 66.3835 29.1077C66.3088 29.407 66.2713 29.6502 66.2713 29.8559V31.6892C66.2713 32.4936 66.5145 33.167 67.0008 33.7282C67.4872 34.2894 68.1418 34.5513 68.9274 34.5513C69.844 34.5513 70.5735 34.1959 71.0785 33.4851C71.6022 32.7742 71.8641 31.8389 71.8641 30.679Z" fill="white"/>
<path d="M87.0553 30.5855C87.0553 32.4562 86.5502 33.9527 85.5219 35.0378C84.6052 36.0105 83.4644 36.4969 82.1175 36.4969C80.6585 36.4969 79.611 35.973 78.975 34.9255V40.7246H76.5247V28.8458C76.5247 27.6673 76.4873 26.4513 76.4312 25.2167H78.5823L78.7132 26.9751H78.7506C79.5736 25.6656 80.8081 24.9922 82.473 24.9922C83.7822 24.9922 84.8672 25.4973 85.7272 26.5448C86.6258 27.555 87.0553 28.9019 87.0553 30.5855ZM84.5675 30.679C84.5675 29.6127 84.3243 28.7148 83.8381 28.0227C83.3149 27.2931 82.6036 26.9377 81.706 26.9377C81.1074 26.9377 80.5463 27.1434 80.06 27.5363C79.5736 27.9479 79.2556 28.4717 79.0873 29.1077C79.0125 29.407 78.975 29.6502 78.975 29.8559V31.6892C78.975 32.4936 79.2182 33.167 79.7046 33.7282C80.1909 34.2707 80.8456 34.5513 81.6312 34.5513C82.5478 34.5513 83.2771 34.1959 83.7822 33.4851C84.3063 32.7742 84.5675 31.8389 84.5675 30.679Z" fill="white"/>
<path d="M101.25 31.9505C101.25 33.2599 100.802 34.3075 99.8853 35.1306C98.8939 36.0285 97.4911 36.4775 95.7137 36.4775C94.0677 36.4775 92.7396 36.1595 91.7482 35.5234L92.31 33.4844C93.3761 34.1204 94.5728 34.4384 95.8451 34.4384C96.7617 34.4384 97.4911 34.2326 97.9962 33.8211C98.5013 33.4096 98.7634 32.8484 98.7634 32.1562C98.7634 31.5389 98.5572 31.0151 98.1268 30.5848C97.6964 30.1546 97.0048 29.7618 96.0135 29.4063C93.3383 28.4149 91.9921 26.937 91.9921 25.029C91.9921 23.7756 92.4595 22.7467 93.4131 21.9423C94.3675 21.1379 95.6209 20.7451 97.1732 20.7451C98.5572 20.7451 99.7358 20.9883 100.652 21.4746L100.035 23.4763C99.1749 23.0086 98.1835 22.7654 97.0985 22.7654C96.2377 22.7654 95.5453 22.9712 95.078 23.4015C94.6665 23.7756 94.4611 24.2433 94.4611 24.7857C94.4611 25.3844 94.7042 25.8895 95.1716 26.2823C95.5831 26.6377 96.3124 27.0305 97.3974 27.4608C98.7067 27.9846 99.6792 28.6019 100.297 29.3128C100.951 30.0049 101.25 30.8842 101.25 31.9505Z" fill="white"/>
<path d="M109.38 27.05H106.668V32.4001C106.668 33.7657 107.135 34.4391 108.09 34.4391C108.519 34.4391 108.894 34.4017 109.175 34.3269L109.25 36.1975C108.763 36.3846 108.127 36.4782 107.342 36.4782C106.368 36.4782 105.621 36.1788 105.078 35.599C104.536 35.0003 104.255 34.0089 104.255 32.6246V27.05H102.647V25.2167H104.255V23.1963L106.668 22.4668V25.2167H109.38C109.38 25.198 109.38 27.05 109.38 27.05Z" fill="white"/>
<path d="M121.561 30.6416C121.561 32.344 121.075 33.7282 120.102 34.8133C119.092 35.9357 117.746 36.4969 116.062 36.4969C114.435 36.4969 113.144 35.9544 112.19 34.8881C111.236 33.8218 110.749 32.4562 110.749 30.8287C110.749 29.1264 111.255 27.7234 112.246 26.6197C113.237 25.5347 114.584 24.9922 116.249 24.9922C117.876 24.9922 119.167 25.5347 120.158 26.601C121.075 27.6299 121.561 28.9767 121.561 30.6416ZM119.017 30.6977C119.017 29.6876 118.793 28.8271 118.363 28.0975C117.857 27.2183 117.109 26.788 116.156 26.788C115.164 26.788 114.416 27.2183 113.911 28.0975C113.48 28.8271 113.256 29.7063 113.256 30.7539C113.256 31.764 113.48 32.6432 113.911 33.3541C114.435 34.2333 115.183 34.6636 116.137 34.6636C117.072 34.6636 117.802 34.2146 118.344 33.3354C118.774 32.5685 119.017 31.7079 119.017 30.6977Z" fill="white"/>
<path d="M129.532 27.3681C129.289 27.3307 129.027 27.2933 128.765 27.2933C127.905 27.2933 127.231 27.6113 126.764 28.2661C126.352 28.8459 126.146 29.5755 126.146 30.4548V36.2539H123.696V28.6963C123.696 27.4243 123.677 26.2644 123.621 25.2169H125.753L125.847 27.3307H125.922C126.184 26.6011 126.595 26.0213 127.156 25.5723C127.698 25.1794 128.297 24.9736 128.933 24.9736C129.158 24.9736 129.363 24.9924 129.551 25.0111L129.532 27.3681Z" fill="white"/>
<path d="M140.493 30.1933C140.493 30.6235 140.455 30.9977 140.399 31.2969H133.048C133.067 32.382 133.44 33.2238 134.114 33.8037C134.732 34.3088 135.536 34.5707 136.527 34.5707C137.612 34.5707 138.603 34.4023 139.501 34.0468L139.894 35.7492C138.847 36.1982 137.612 36.4227 136.19 36.4227C134.488 36.4227 133.141 35.9176 132.15 34.9074C131.178 33.8972 130.691 32.5504 130.691 30.848C130.691 29.1831 131.14 27.7988 132.056 26.6951C133.01 25.5165 134.301 24.918 135.909 24.918C137.5 24.918 138.697 25.5165 139.52 26.6951C140.175 27.6679 140.493 28.8276 140.493 30.1933ZM138.154 29.5572C138.173 28.8276 138.005 28.2103 137.687 27.6679C137.256 26.9757 136.602 26.6389 135.741 26.6389C134.937 26.6389 134.282 26.9757 133.796 27.6304C133.385 28.1542 133.141 28.7903 133.067 29.5385L138.154 29.5572Z" fill="white"/>
<path d="M56.0563 15.4518H54.7657L54.0549 13.2444H51.6045L50.9312 15.4518H49.6779L52.0909 7.93164H53.5873L56.0563 15.4518ZM53.8678 12.3277L53.2319 10.3635C53.157 10.1578 53.0448 9.69011 52.8578 8.94179H52.8391C52.7643 9.25985 52.6521 9.72749 52.4837 10.3635L51.8664 12.3277H53.8678Z" fill="white"/>
<path d="M62.1209 10.0264L60.0634 15.4514H58.8849L56.9022 10.0264H58.1928L59.1281 12.8886C59.2778 13.3749 59.4087 13.8239 59.5209 14.2542H59.5583C59.6518 13.8613 59.7828 13.4123 59.9511 12.8886L60.8676 10.0264C60.849 10.0264 62.1209 10.0264 62.1209 10.0264Z" fill="white"/>
<path d="M66.4959 15.451L66.4024 14.8337H66.3649C65.9909 15.3388 65.4671 15.582 64.7751 15.582C63.8024 15.582 63.1103 14.9085 63.1103 13.9919C63.1103 12.645 64.27 11.9528 66.2715 11.9528V11.8593C66.2715 11.1484 65.8973 10.793 65.1491 10.793C64.6067 10.793 64.1391 10.924 63.7276 11.2046L63.4844 10.4189C63.9894 10.1008 64.6067 9.95117 65.3549 9.95117C66.7764 9.95117 67.4872 10.6995 67.4872 12.1961V14.1976C67.4872 14.7401 67.506 15.1704 67.5621 15.4884L66.4959 15.451ZM66.3276 12.7573C64.9808 12.7573 64.3261 13.0752 64.3261 13.8422C64.3261 14.4034 64.6815 14.684 65.1491 14.684C65.7664 14.684 66.3276 14.2164 66.3276 13.5803C66.3276 13.5991 66.3276 12.7573 66.3276 12.7573Z" fill="white"/>
<path d="M70.1799 9.12888C69.7871 9.12888 69.4691 8.81091 69.4691 8.39937C69.4691 7.98779 69.7871 7.68848 70.1986 7.68848C70.6101 7.68848 70.9468 7.98779 70.9281 8.39937C70.9468 8.84828 70.6288 9.12888 70.1799 9.12888ZM70.7972 15.4518H69.6V10.0268H70.7972V15.4518Z" fill="white"/>
<path d="M74.144 15.4515H72.9468V7.53857H74.144V15.4515Z" fill="white"/>
<path d="M79.2693 15.451L79.1758 14.8337H79.1384C78.7643 15.3388 78.2405 15.582 77.5484 15.582C76.5758 15.582 75.8837 14.9085 75.8837 13.9919C75.8837 12.645 77.0434 11.9528 79.0449 11.9528V11.8593C79.0449 11.1484 78.6707 10.793 77.9226 10.793C77.3801 10.793 76.9125 10.924 76.501 11.2046L76.2579 10.4189C76.7628 10.1008 77.3801 9.95117 78.1283 9.95117C79.5499 9.95117 80.2607 10.6995 80.2607 12.1961V14.1976C80.2607 14.7401 80.2794 15.1704 80.3355 15.4884H79.2693V15.451ZM79.101 12.7573C77.7542 12.7573 77.0996 13.0752 77.0996 13.8422C77.0996 14.4034 77.455 14.684 77.9226 14.684C78.5398 14.684 79.101 14.2164 79.101 13.5803V12.7573Z" fill="white"/>
<path d="M85.159 15.5828C84.3919 15.5828 83.812 15.2649 83.4572 14.6288H83.4383L83.3636 15.4706H82.3344C82.3722 15.0404 82.3722 14.5353 82.3722 14.0114V7.55762H83.5878V10.8313H83.6067C83.9615 10.2327 84.5414 9.93337 85.3274 9.93337C86.6367 9.93337 87.5533 11.0558 87.5533 12.6833C87.5533 14.3482 86.543 15.5828 85.159 15.5828ZM84.9159 10.8687C84.2235 10.8687 83.5878 11.4673 83.5878 12.3091V13.2632C83.5878 14.0114 84.1488 14.6288 84.897 14.6288C85.7948 14.6288 86.3377 13.8992 86.3377 12.7207C86.3377 11.617 85.7767 10.8687 84.9159 10.8687Z" fill="white"/>
<path d="M90.5463 15.4515H89.3488V7.53857H90.5463V15.4515Z" fill="white"/>
<path d="M97.1207 13.0381H93.51C93.5289 14.067 94.2213 14.6469 95.2127 14.6469C95.7547 14.6469 96.241 14.5533 96.6714 14.385L96.8586 15.2268C96.3535 15.4513 95.7367 15.5635 95.0443 15.5635C93.3416 15.5635 92.3511 14.4972 92.3511 12.8324C92.3511 11.1674 93.3794 9.91406 94.9129 9.91406C96.2977 9.91406 97.1765 10.943 97.1765 12.4956C97.1576 12.7014 97.1576 12.8885 97.1207 13.0381ZM96.0168 12.1776C96.0168 11.3358 95.5864 10.7559 94.8201 10.7559C94.1277 10.7559 93.5856 11.3545 93.51 12.1776H96.0168Z" fill="white"/>
<path d="M104.43 15.5831C102.84 15.5831 101.811 14.4045 101.811 12.7957C101.811 11.1121 102.859 9.93359 104.524 9.93359C106.076 9.93359 107.142 11.056 107.142 12.7209C107.123 14.4045 106.038 15.5831 104.43 15.5831ZM104.467 10.7941C103.588 10.7941 103.046 11.6172 103.046 12.7396C103.046 13.862 103.607 14.6664 104.467 14.6664C105.328 14.6664 105.889 13.7872 105.889 12.7209C105.87 11.6359 105.309 10.7941 104.467 10.7941Z" fill="white"/>
<path d="M113.594 15.4513H112.397V12.3273C112.397 11.3732 112.023 10.8868 111.312 10.8868C110.601 10.8868 110.096 11.5042 110.096 12.215V15.4513H108.899V11.579C108.899 11.0926 108.88 10.5876 108.861 10.0264H109.928L109.984 10.8682H110.021C110.34 10.2882 111.013 9.91406 111.743 9.91406C112.884 9.91406 113.632 10.7933 113.632 12.1963L113.594 15.4513Z" fill="white"/>
<path d="M121.489 10.9437H120.161V13.5813C120.161 14.2548 120.386 14.5915 120.872 14.5915C121.078 14.5915 121.265 14.5728 121.414 14.5354L121.452 15.452C121.209 15.5456 120.909 15.583 120.517 15.583C119.563 15.583 119.001 15.0592 119.001 13.6936V10.9624H118.216V10.0271H119.001V9.03561L120.18 8.68018V10.0271H121.508V10.9437H121.489Z" fill="white"/>
<path d="M127.869 15.4515H126.653V12.3649C126.653 11.3922 126.279 10.9058 125.568 10.9058C124.951 10.9058 124.371 11.3361 124.371 12.1965V15.4515H123.156V7.53857H124.371V10.7935H124.39C124.764 10.195 125.325 9.91437 126.017 9.91437C127.158 9.91437 127.869 10.8123 127.869 12.234V15.4515Z" fill="white"/>
<path d="M134.044 13.0381H130.415C130.433 14.067 131.126 14.6469 132.117 14.6469C132.659 14.6469 133.146 14.5533 133.576 14.385L133.763 15.2268C133.258 15.4513 132.641 15.5635 131.949 15.5635C130.247 15.5635 129.256 14.4972 129.256 12.8324C129.256 11.1674 130.284 9.91406 131.817 9.91406C133.202 9.91406 134.081 10.943 134.081 12.4956C134.081 12.7014 134.062 12.8885 134.044 13.0381ZM132.94 12.1776C132.94 11.3358 132.51 10.7559 131.743 10.7559C131.051 10.7559 130.508 11.3545 130.433 12.1776H132.94Z" fill="white"/>
</svg>
