<svg width="105" height="30" viewBox="0 0 105 30" fill="none" xmlns="http://www.w3.org/2000/svg">
<path d="M10.626 1.4502C13.2206 0.978455 15.8991 1.42088 18.2041 2.70216C20.5091 3.98348 22.2987 6.02481 23.2676 8.47755C23.9736 10.2648 24.2124 12.1905 23.9775 14.0752C23.951 14.2882 23.837 14.4468 23.6465 14.5518C23.442 14.6644 23.1523 14.7068 22.8555 14.6113C22.3311 14.4426 21.8474 13.7615 21.8594 12.7774C21.8738 11.592 21.6587 10.4058 21.2168 9.28712C20.4352 7.30896 18.9919 5.66237 17.1328 4.62891C15.2737 3.59551 13.1133 3.23865 11.0205 3.61915C8.92781 3.99969 7.0316 5.09419 5.65527 6.71583C4.27891 8.3376 3.50779 10.3869 3.47266 12.5137C3.43757 14.6405 4.14072 16.7145 5.46289 18.3809C6.78503 20.0471 8.64454 21.203 10.7236 21.6524C11.8993 21.9064 13.1042 21.9258 14.2715 21.7188C15.2404 21.5469 15.9904 21.9135 16.2422 22.4033C16.3846 22.6807 16.3904 22.9732 16.3125 23.1934C16.2399 23.3984 16.1023 23.5368 15.8965 23.5977C14.0751 24.1359 12.1361 24.2135 10.2578 23.8076C7.68028 23.2506 5.3755 21.8167 3.73633 19.751C2.09716 17.6851 1.22506 15.1144 1.26855 12.4775C1.31206 9.84078 2.26824 7.3007 3.97461 5.29005C5.68096 3.27944 8.03146 1.92202 10.626 1.4502Z" stroke="#7445FF" stroke-width="2.53311"/>
<path d="M20.5166 16.9717C21.9041 16.9717 23.0178 18.1085 23.0498 19.5108V22.0381H20.5166C19.1241 22.0379 17.9834 20.8974 17.9834 19.5049C17.9836 18.1125 19.1242 16.9719 20.5166 16.9717Z" fill="#7445FF" stroke="#7445FF" stroke-width="0.506622"/>
<path d="M87.4313 29.6285V26.1834H89.8968C91.518 26.1834 92.5313 25.8119 93.2405 23.853L93.7134 22.6033L86.9922 5.20927H91.3491L95.6385 17.3682L100.164 5.20927H104.42L96.2465 25.6093C94.9968 28.7166 93.2405 30 90.5048 30C89.3564 30 88.3432 29.8649 87.4313 29.6285Z" fill="#2D2D2D"/>
<path d="M75.8076 22.3331C72.2612 22.3331 70.0996 20.2728 70.0996 17.1318C70.0996 14.0583 72.3287 12.1331 76.2804 11.8291L81.2791 11.4576V11.0861C81.2791 8.82318 79.9281 7.91126 77.834 7.91126C75.4023 7.91126 74.0513 8.92451 74.0513 10.6808H70.5387C70.5387 7.06689 73.5109 4.70265 78.0367 4.70265C82.5287 4.70265 85.2983 7.13444 85.2983 11.7616V21.894H81.6844L81.3804 19.4285C80.6711 21.151 78.4082 22.3331 75.8076 22.3331ZM77.1586 19.2258C79.6917 19.2258 81.3129 17.706 81.3129 15.1391V14.2609L77.834 14.5311C75.2672 14.7675 74.2877 15.6119 74.2877 16.9629C74.2877 18.4828 75.3009 19.2258 77.1586 19.2258Z" fill="#2D2D2D"/>
<path d="M49.9297 29.6285V5.20927H53.7462L54.0164 7.74239C55.0297 5.81722 57.2251 4.70265 59.7582 4.70265C64.4529 4.70265 67.5601 8.11391 67.5601 13.349C67.5601 18.5503 64.7231 22.3331 59.7582 22.3331C57.2588 22.3331 55.0972 21.3536 54.0502 19.6649V29.6285H49.9297ZM54.084 13.5517C54.084 16.5576 55.9416 18.6179 58.7787 18.6179C61.6833 18.6179 63.4058 16.5238 63.4058 13.5517C63.4058 10.5795 61.6833 8.45166 58.7787 8.45166C55.9416 8.45166 54.084 10.5457 54.084 13.5517Z" fill="#2D2D2D"/>
<path d="M35.5189 21.894H30.8242L36.5659 13.7205L30.8242 5.20927H35.6202L39.3017 10.8834L42.8481 5.20927H47.4752L41.801 13.653L47.3063 21.894H42.5779L39.0315 16.3887L35.5189 21.894Z" fill="#2D2D2D"/>
</svg>
