<svg width="24" height="24" viewBox="0 0 24 24" fill="none" xmlns="http://www.w3.org/2000/svg">
<g clip-path="url(#clip0_693_9481)">
<path opacity="0.4" d="M22.75 12.053C22.75 13.777 22.75 15.143 22.6124 16.2224C22.4707 17.3336 22.1732 18.2392 21.507 18.9864C21.3093 19.2082 21.0919 19.4128 20.8574 19.598C20.074 20.2166 19.1316 20.4904 17.9694 20.6216C16.8308 20.7503 15.3866 20.7503 13.5475 20.7502H10.4525C8.61345 20.7503 7.16917 20.7503 6.03058 20.6216C4.86842 20.4904 3.926 20.2166 3.14263 19.598C2.90811 19.4128 2.69068 19.2082 2.49298 18.9864C1.82681 18.2392 1.52932 17.3336 1.38763 16.2224C1.24998 15.143 1.24999 13.777 1.25 12.053V11.9475C1.25 11.3717 1.24999 10.8359 1.25512 10.3373C1.25795 10.0616 1.25937 9.92381 1.34704 9.83702C1.43472 9.75024 1.57361 9.75024 1.85139 9.75024H22.1486C22.4264 9.75024 22.5653 9.75024 22.653 9.83702C22.7406 9.92381 22.7421 10.0616 22.7449 10.3373C22.75 10.8359 22.75 11.3717 22.75 11.9475V12.053Z" fill="#7545FF"/>
<path d="M13.5485 3.25024C15.3875 3.25024 16.8317 3.25023 17.9703 3.37884C19.1325 3.51012 20.0749 3.78386 20.8583 4.40253C21.0928 4.58774 21.3102 4.79229 21.5079 5.01404C22.1741 5.76126 22.4716 6.66694 22.6133 7.77809C22.6296 7.90594 22.6377 7.96987 22.6231 8.02603C22.5996 8.11578 22.5308 8.194 22.4447 8.22859C22.3909 8.25024 22.3235 8.25024 22.1887 8.25024H1.81314C1.67836 8.25024 1.61097 8.25024 1.55712 8.2286C1.47105 8.194 1.40218 8.11578 1.37874 8.02603C1.36408 7.96987 1.37223 7.90594 1.38854 7.77809C1.53023 6.66694 1.82772 5.76126 2.49389 5.01404C2.69159 4.79229 2.90902 4.58774 3.14354 4.40253C3.92692 3.78386 4.86933 3.51012 6.03149 3.37884C7.17008 3.25023 8.61437 3.25024 10.4534 3.25024H13.5485Z" fill="#7545FF"/>
<path fill-rule="evenodd" clip-rule="evenodd" d="M10.25 16.0002C10.25 15.586 10.5858 15.2502 11 15.2502H12.5C12.9142 15.2502 13.25 15.586 13.25 16.0002C13.25 16.4145 12.9142 16.7502 12.5 16.7502H11C10.5858 16.7502 10.25 16.4145 10.25 16.0002Z" fill="#7545FF"/>
<path fill-rule="evenodd" clip-rule="evenodd" d="M14.75 16.0002C14.75 15.586 15.0858 15.2502 15.5 15.2502L19 15.2502C19.4142 15.2502 19.75 15.586 19.75 16.0002C19.75 16.4145 19.4142 16.7502 19 16.7502L15.5 16.7502C15.0858 16.7502 14.75 16.4145 14.75 16.0002Z" fill="#7545FF"/>
</g>
<defs>
<clipPath id="clip0_693_9481">
<rect width="24" height="24" fill="white"/>
</clipPath>
</defs>
</svg>
