<svg width="26" height="26" viewBox="0 0 26 26" fill="none" xmlns="http://www.w3.org/2000/svg">
<path d="M10.7872 1.47272C13.4211 0.993828 16.1397 1.44253 18.4796 2.74323C20.8193 4.04387 22.6356 6.11587 23.6192 8.60553C24.3359 10.4199 24.5783 12.3749 24.3399 14.2881C24.313 14.5044 24.1974 14.665 24.004 14.7715C23.7964 14.8859 23.5026 14.929 23.2012 14.8321C22.669 14.6608 22.1783 13.9697 22.1905 12.9708C22.2051 11.7675 21.9867 10.5634 21.5381 9.4278C20.7448 7.4196 19.2789 5.74841 17.3917 4.69928C15.5045 3.65032 13.3119 3.28766 11.1876 3.67389C9.06321 4.06013 7.13845 5.17134 5.74127 6.81744C4.34406 8.46379 3.56109 10.5442 3.52545 12.7032C3.48984 14.8622 4.20379 16.9667 5.54596 18.6583C6.88811 20.3498 8.77516 21.5244 10.8858 21.9805C12.0793 22.2384 13.3025 22.2571 14.4874 22.0469C15.4712 21.8724 16.2329 22.2458 16.4883 22.7432C16.6326 23.0245 16.6385 23.3207 16.5596 23.544C16.486 23.7521 16.3457 23.8924 16.1368 23.9542C14.2878 24.5005 12.3199 24.5791 10.4131 24.1671C7.79647 23.6016 5.45604 22.147 3.79205 20.0499C2.12809 17.9528 1.24302 15.3428 1.28717 12.6661C1.33138 9.98965 2.30228 7.41113 4.03424 5.37018C5.76647 3.32908 8.1533 1.95162 10.7872 1.47272Z" stroke="#7445FF" stroke-width="2.57143"/>
<path d="M20.8281 17.2286C22.1487 17.2286 23.2249 18.2431 23.3808 19.543L23.4003 19.8057V22.3721H20.8281C19.4146 22.3719 18.2568 21.2134 18.2568 19.7999C18.257 18.3865 19.4147 17.2288 20.8281 17.2286Z" fill="#7445FF" stroke="#7445FF" stroke-width="0.514286"/>
</svg>
