<svg width="108" height="30" viewBox="0 0 108 30" fill="none" xmlns="http://www.w3.org/2000/svg">
<path d="M13.1813 1.47272C15.8152 0.993828 18.5339 1.44253 20.8737 2.74323C23.2134 4.04387 25.0298 6.11587 26.0134 8.60553C26.7301 10.4199 26.9725 12.3749 26.7341 14.2881C26.7071 14.5044 26.5915 14.665 26.3981 14.7715C26.1905 14.8859 25.8967 14.929 25.5954 14.8321C25.0632 14.6608 24.5725 13.9697 24.5847 12.9708C24.5993 11.7675 24.3809 10.5634 23.9323 9.4278C23.139 7.4196 21.6731 5.74841 19.7858 4.69928C17.8986 3.65032 15.7061 3.28766 13.5817 3.67389C11.4574 4.06013 9.53262 5.17134 8.13544 6.81744C6.73822 8.46379 5.95525 10.5442 5.91962 12.7032C5.884 14.8622 6.59795 16.9667 7.94012 18.6583C9.28228 20.3498 11.1693 21.5244 13.28 21.9805C14.4734 22.2384 15.6966 22.2571 16.8815 22.0469C17.8654 21.8724 18.6271 22.2458 18.8825 22.7432C19.0268 23.0245 19.0327 23.3207 18.9538 23.544C18.8801 23.7521 18.7399 23.8924 18.5309 23.9542C16.682 24.5005 14.714 24.5791 12.8073 24.1671C10.1906 23.6016 7.85021 22.147 6.18622 20.0499C4.52225 17.9528 3.63718 15.3428 3.68134 12.6661C3.72555 9.98965 4.69645 7.41113 6.42841 5.37018C8.16064 3.32908 10.5475 1.95162 13.1813 1.47272Z" stroke="#7445FF" stroke-width="2.57143"/>
<path d="M23.2222 17.2286C24.5428 17.2286 25.6191 18.2431 25.775 19.543L25.7945 19.8057V22.3721H23.2222C21.8087 22.3719 20.6509 21.2134 20.6509 19.7999C20.6512 18.3865 21.8089 17.2288 23.2222 17.2286Z" fill="#7445FF" stroke="#7445FF" stroke-width="0.514286"/>
<path d="M87.5029 14.8572C87.5029 9.57716 91.3086 5.94287 96.5544 5.94287C101.8 5.94287 105.606 9.57716 105.606 14.8572C105.606 20.1372 101.8 23.7714 96.5544 23.7714C91.3086 23.7714 87.5029 20.1372 87.5029 14.8572ZM91.6858 14.8572C91.6858 17.9429 93.6744 20.0343 96.5544 20.0343C99.4344 20.0343 101.423 17.9429 101.423 14.8572C101.423 11.7714 99.4344 9.68001 96.5544 9.68001C93.6744 9.68001 91.6858 11.7714 91.6858 14.8572Z" fill="#2D2D2D"/>
<path d="M85.2813 23.36H71.6013V19.9314L80.0356 9.92H71.6013V6.42285H85.2813V9.88571L76.7099 19.8629H85.2813V23.36Z" fill="#2D2D2D"/>
<path d="M56.4859 23.36H52.303V6.42285H56.1773L56.5202 8.61714C57.583 6.90285 59.6402 5.90857 61.9373 5.90857C66.1888 5.90857 68.383 8.54857 68.383 12.9371V23.36H64.2002V13.9314C64.2002 11.0857 62.7945 9.71428 60.6345 9.71428C58.063 9.71428 56.4859 11.4971 56.4859 14.24V23.36Z" fill="#2D2D2D"/>
<path d="M43.7999 6.42285H47.9827V23.36H44.1085L43.7999 21.0971C42.7713 22.7086 40.577 23.8057 38.3142 23.8057C34.4056 23.8057 32.1085 21.1657 32.1085 17.0171V6.42285H36.2913V15.5429C36.2913 18.7657 37.5599 20.0686 39.8913 20.0686C42.5313 20.0686 43.7999 18.5257 43.7999 15.3029V6.42285Z" fill="#2D2D2D"/>
</svg>
